<svg width="218" height="182" viewBox="0 0 218 182" fill="none" xmlns="http://www.w3.org/2000/svg">
<g clip-path="url(#clip0_48_54)">
<path d="M161.957 103.221C167.975 63.3111 140.482 26.0819 100.55 20.0675C60.6186 14.053 23.3693 41.5308 17.3516 81.441C11.3339 121.351 38.8266 158.58 78.7583 164.595C118.69 170.609 155.939 143.131 161.957 103.221Z" fill="white"/>
<path d="M89.699 182C74.9424 182.007 60.412 178.375 47.3955 171.427C34.379 164.479 23.2784 154.429 15.0774 142.168C6.87626 129.906 1.82796 115.813 0.379829 101.135C-1.0683 86.4577 1.12844 71.6499 6.77541 58.0239C12.4224 44.3979 21.3452 32.3745 32.7531 23.0192C44.161 13.6638 57.7017 7.26549 72.1754 4.39115C86.649 1.51681 101.609 2.25524 115.728 6.54097C129.848 10.8267 142.692 18.5274 153.122 28.9606L151.156 30.9264C136.922 16.6865 118.188 7.82113 98.147 5.84157C78.1057 3.862 57.9977 8.89078 41.251 20.0707C24.5043 31.2505 12.1555 47.8894 6.30968 67.1509C0.463889 86.4123 1.48302 107.104 9.19332 125.698C16.9036 144.293 30.8278 159.639 48.5922 169.121C66.3566 178.603 86.8614 181.634 106.611 177.697C126.361 173.759 144.134 163.098 156.899 147.53C169.664 131.961 176.631 112.45 176.614 92.3221V90.9378H214.995V93.7065H179.37C179.028 117.245 169.428 139.702 152.647 156.22C135.865 172.738 113.252 181.989 89.699 181.972V182Z" fill="white"/>
<path d="M205.811 103.674L203.928 101.653L213.928 92.3498L203.928 83.0609L205.811 81.0259L218 92.3498L205.811 103.674Z" fill="white"/>
<path d="M176.134 38.8829C178.264 25.6969 169.295 13.2819 156.102 11.1533C142.909 9.02472 130.487 17.9886 128.357 31.1746C126.227 44.3607 135.196 56.7756 148.389 58.9042C161.583 61.0328 174.004 52.069 176.134 38.8829Z" fill="#FF5F15"/>
<path d="M152.18 61.2574C146.976 61.2574 141.887 59.7148 137.56 56.8246C133.232 53.9344 129.859 49.8266 127.867 45.0204C125.875 40.2142 125.354 34.9256 126.369 29.8234C127.385 24.7212 129.891 20.0346 133.572 16.3561C137.252 12.6776 141.941 10.1725 147.046 9.15763C152.151 8.14274 157.443 8.66362 162.252 10.6544C167.06 12.6452 171.17 16.0164 174.062 20.3419C176.954 24.6673 178.497 29.7527 178.497 34.9548C178.497 38.4089 177.817 41.8292 176.494 45.0204C175.171 48.2116 173.233 51.1111 170.789 53.5535C168.346 55.996 165.444 57.9334 162.252 59.2552C159.059 60.5771 155.636 61.2574 152.18 61.2574V61.2574ZM152.18 12.8883C147.797 12.8883 143.513 14.1874 139.868 16.6212C136.224 19.055 133.383 22.5143 131.706 26.5616C130.029 30.6089 129.59 35.0625 130.445 39.359C131.3 43.6556 133.411 47.6023 136.51 50.7C139.609 53.7976 143.558 55.9072 147.857 56.7618C152.156 57.6165 156.612 57.1778 160.661 55.5014C164.711 53.8249 168.172 50.986 170.607 47.3435C173.042 43.701 174.342 39.4186 174.342 35.0379C174.342 29.1634 172.007 23.5296 167.851 19.3758C163.695 15.222 158.058 12.8883 152.18 12.8883Z" fill="white"/>
<path d="M145.324 42.6795C144.473 42.739 143.621 42.5853 142.845 42.2323C142.068 41.8794 141.393 41.3384 140.878 40.6583C139.908 39.027 139.395 37.1642 139.395 35.2663C139.395 33.3683 139.908 31.5056 140.878 29.8743C141.433 29.2395 142.118 28.7307 142.886 28.3822C143.654 28.0336 144.488 27.8533 145.331 27.8533C146.175 27.8533 147.009 28.0336 147.777 28.3822C148.545 28.7307 149.229 29.2395 149.784 29.8743C150.745 31.509 151.252 33.3704 151.252 35.2663C151.252 37.1622 150.745 39.0236 149.784 40.6583C149.267 41.3385 148.589 41.8795 147.81 42.2323C147.031 42.5851 146.177 42.7388 145.324 42.6795V42.6795ZM143.219 31.8124C142.318 34.0318 142.318 36.5147 143.219 38.7341C143.399 39.1383 143.695 39.4796 144.07 39.714C144.445 39.9483 144.882 40.0651 145.324 40.0492C145.768 40.0623 146.205 39.9446 146.582 39.7107C146.959 39.4768 147.259 39.1371 147.444 38.7341C148.344 36.5147 148.344 34.0318 147.444 31.8124C147.258 31.4108 146.958 31.0729 146.581 30.8414C146.204 30.6099 145.767 30.4949 145.324 30.5111C144.883 30.4921 144.447 30.6061 144.071 30.8381C143.696 31.0701 143.399 31.4096 143.219 31.8124V31.8124Z" fill="white"/>
<path d="M159.203 33.7781C159.535 33.3482 159.724 32.8255 159.743 32.283C159.75 32.063 159.711 31.8439 159.63 31.6393C159.549 31.4346 159.428 31.2485 159.272 31.0924C159.117 30.9316 158.929 30.8053 158.721 30.7219C158.514 30.6384 158.291 30.5996 158.067 30.608C157.167 30.608 156.308 31.2447 155.505 32.5322L152.942 31.0232C153.507 30.0919 154.256 29.2863 155.145 28.656C156.063 28.0921 157.128 27.8127 158.206 27.8531C159.4 27.8394 160.558 28.2628 161.461 29.0436C161.922 29.4344 162.287 29.9262 162.527 30.4808C162.767 31.0354 162.876 31.6379 162.846 32.2415C162.843 32.9891 162.647 33.7234 162.278 34.3734C161.693 35.3174 160.995 36.1867 160.2 36.9621L157.638 39.7169H163.303V42.4856H153.233V40.1184L157.388 35.8131C158.04 35.1781 158.647 34.4981 159.203 33.7781V33.7781Z" fill="white"/>
<g clip-path="url(#clip1_48_54)">
<path d="M126 68.6242V111.046C125.705 111.594 125.255 111.791 124.63 111.775C123.342 111.739 122.053 111.764 120.705 111.764C120.69 112.082 120.669 112.329 120.669 112.575C120.669 114.908 120.669 117.242 120.669 119.575C120.675 119.783 120.67 119.992 120.652 120.199C120.583 120.828 120.197 121.188 119.602 121.157C119.007 121.127 118.654 120.824 118.607 120.216C118.589 119.987 118.591 119.755 118.591 119.521C118.591 115.477 118.591 111.434 118.591 107.391C118.591 107.155 118.571 106.92 118.556 106.558L91.1862 129.854H118.589C118.589 128.571 118.589 127.327 118.589 126.084C118.589 125.529 118.755 125.073 119.352 124.92C120.08 124.736 120.647 125.198 120.661 126.015C120.684 127.47 120.67 128.932 120.669 130.382C120.669 131.699 120.391 131.974 119.095 131.974H88.7951C88.6104 131.974 88.3895 132.035 88.2478 131.954C87.9282 131.772 87.5017 131.574 87.3905 131.28C87.2794 130.987 87.4197 130.517 87.6017 130.218C87.7976 129.898 88.17 129.686 88.4687 129.432L108.475 112.404C108.671 112.236 108.854 112.055 109.107 111.822H79.5825V112.71C79.5825 117.192 79.5825 121.675 79.5825 126.156C79.5825 128.705 78.4363 130.426 76.0967 131.362C74.0836 132.168 72.0385 132.211 70.0157 131.404C68.3373 130.735 67.0064 129.665 66.4937 127.85C66.3426 127.222 66.267 126.579 66.2686 125.934C66.2339 124.89 66.2589 123.841 66.2589 122.749C63.6637 123.94 62.737 124.138 60.6336 123.94C57.1603 123.622 55.004 121.278 55.004 117.8V86.8215C54.9942 86.5899 54.9983 86.358 55.0165 86.127C55.086 85.5714 55.4152 85.2616 55.9821 85.2311C56.7226 85.1922 57.0824 85.6214 57.0838 86.5548C57.0838 95.0804 57.0838 103.606 57.0838 112.132V113.012C58.4384 111.818 59.9333 111.275 61.5158 111V71.2036C59.0997 71.5342 57.1394 73.7635 57.0894 76.2179C57.0602 77.6263 57.0894 79.0361 57.0797 80.446C57.0797 81.2794 56.7198 81.6961 56.0279 81.685C55.3361 81.6738 55.0054 81.2683 55.0026 80.4182C55.0026 79.0778 54.9901 77.7374 55.0026 76.3984C55.0247 74.4358 55.8154 72.5601 57.205 71.1737C58.5946 69.7872 60.4724 69.0006 62.4355 68.9826C63.2413 68.9715 63.6206 69.3257 63.6484 70.1493C63.6664 70.6813 63.6748 71.2133 63.6484 71.7439C63.6289 72.1453 63.7873 72.2759 64.1722 72.3926C64.926 72.6027 65.6553 72.8923 66.3479 73.2565C67.6691 73.9982 68.4318 75.108 68.329 76.7096C68.279 77.5013 68.3207 78.3 68.3207 79.1875C68.8486 78.7986 69.2446 78.4389 69.7003 78.1888C70.131 77.9527 70.2352 77.6527 70.2324 77.1902C70.2129 74.5802 70.2213 71.9689 70.2241 69.359C70.2241 68.1811 70.5089 67.8992 71.6995 67.8978H83.9798C83.9798 66.0129 84.002 64.235 83.9686 62.4584C83.9561 61.8209 84.1187 61.3306 84.6744 61H91.8864C92.4102 61.357 92.5811 61.8487 92.5685 62.4779C92.5338 63.6766 92.5588 64.8767 92.5588 66.0768V67.8992H93.5536C103.845 67.8992 114.135 67.8964 124.424 67.8908C125.091 67.8894 125.675 67.9547 126 68.6242ZM92.5616 70.0063V70.9119C92.5616 77.38 92.5616 83.8485 92.5616 90.3176C92.5616 91.4288 92.224 91.7691 91.1195 91.7705C89.2476 91.7705 87.3762 91.7705 85.5052 91.7705C84.2854 91.7705 83.9867 91.476 83.9853 90.269V70.0174H72.372V77.0763C72.711 77.0304 72.9833 76.979 73.257 76.9568C74.5532 76.854 74.9241 77.204 74.9353 78.5028C74.9353 79.075 74.9353 79.6459 74.9353 80.1696C75.6174 80.3987 76.2218 80.5585 76.79 80.8015C78.6309 81.5877 79.6326 82.835 79.6103 85.0019C79.5339 92.9192 79.5825 100.85 79.5839 108.775V109.644H97.4117V70.0063H92.5616ZM123.901 70.0285H99.6069V95.1443H123.901V70.0285ZM99.5944 109.684H100.378C103.912 109.684 107.447 109.675 110.981 109.695C111.44 109.71 111.885 109.544 112.222 109.233C114.389 107.361 116.579 105.516 118.752 103.652C119.153 103.306 119.57 103.126 120.076 103.359C120.581 103.592 120.666 104.028 120.665 104.517C120.665 105.926 120.665 107.335 120.665 108.744C120.665 109.034 120.665 109.326 120.665 109.65H123.876V97.3278H99.5944V109.684ZM68.3346 120.914C68.4867 120.796 68.6468 120.688 68.8139 120.592C69.8934 120.094 70.9479 119.512 72.0719 119.149C72.6651 118.957 72.8707 118.806 72.8693 118.17C72.8471 105.424 72.8401 92.6789 72.8485 79.9334V79.1334C72.5706 79.1834 72.3983 79.2014 72.2289 79.25C69.867 79.9251 68.329 82.028 68.329 84.6032C68.329 96.4486 68.329 108.294 68.329 120.138L68.3346 120.914ZM63.6526 74.2246V75.3595C63.6526 87.3919 63.6526 99.4243 63.6526 111.457C63.6526 112.707 63.4983 112.882 62.2716 113.046C62.116 113.067 61.9645 113.11 61.7964 113.146V114.212L66.2423 115.242V99.7808C66.2423 92.0663 66.2362 84.3528 66.2242 76.6401C66.2242 76.2415 66.0853 75.7011 65.8074 75.4775C65.2239 75.0053 64.5042 74.7052 63.6595 74.2246H63.6526ZM77.4986 123.208V122.477C77.4986 117.118 77.4986 111.76 77.4986 106.401C77.4986 99.1493 77.4935 91.8964 77.4833 84.6421C77.4833 84.274 77.4124 83.8254 77.1971 83.5559C76.6497 82.8698 75.8453 82.5947 74.9311 82.3961V83.3795C74.9311 95.2981 74.9311 107.217 74.9311 119.135C74.9311 120.741 74.7921 120.901 73.1972 121.051C73.1569 121.051 73.1194 121.088 73.0583 121.119V122.183L77.4986 123.208ZM90.4193 89.6689V63.1182H86.0901V65.6768C87.4169 65.8157 87.7782 66.0184 87.7976 66.6935C87.7976 66.931 87.7448 67.3005 87.592 67.388C87.1391 67.6436 86.6195 67.7866 86.0512 68.0047V70.5452H86.8973C87.1502 70.5452 87.4044 70.5452 87.6587 70.5452C88.3686 70.5702 88.7882 70.9619 88.784 71.58C88.7799 72.1981 88.3672 72.5967 87.649 72.6176C87.1293 72.6342 86.6083 72.6176 86.0818 72.6176V75.2567C87.4517 75.4664 87.8143 75.69 87.8421 76.329C87.8712 76.9985 87.5031 77.2443 86.0901 77.486V80.1251C86.6459 80.1251 87.1794 80.1098 87.7031 80.1251C88.3686 80.1501 88.7729 80.5418 88.7854 81.1446C88.7993 81.7697 88.3783 82.1767 87.674 82.1947C87.1502 82.2086 86.6264 82.1947 86.0901 82.1947V84.8713C87.4697 85.0644 87.8226 85.2769 87.8004 85.952C87.7921 86.1909 87.7156 86.5464 87.5531 86.6353C87.1127 86.8756 86.6097 87.002 86.0971 87.1909V89.6495L90.4193 89.6689ZM59.6833 113.722C58.2008 114.546 57.5048 115.715 57.22 117.185C56.9657 118.493 57.0338 119.712 58.0925 120.695C59.9069 122.38 63.7137 122.328 65.4934 120.588C66.7021 119.407 66.4659 117.906 64.9585 117.159C64.6501 117.006 64.3278 116.828 63.9971 116.785C62.9968 116.653 61.9909 116.54 60.9837 116.497C60.0736 116.46 59.711 116.174 59.686 115.275C59.6721 114.817 59.6833 114.358 59.6833 113.722ZM70.9368 121.702C69.2474 122.623 68.5749 124.027 68.3999 125.744C68.2248 127.461 68.8667 128.64 70.4352 129.366C71.6745 129.942 72.9694 130.03 74.2934 129.754C75.3076 129.543 76.2384 129.151 76.9331 128.351C77.882 127.259 77.6597 125.898 76.4121 125.179C76.1022 124.976 75.7565 124.835 75.3937 124.762C74.3698 124.623 73.3389 124.517 72.3066 124.484C71.3341 124.448 70.9479 124.133 70.934 123.173C70.9382 122.719 70.9437 122.266 70.9437 121.702H70.9368Z" fill="#FF5F15"/>
<path d="M108.219 126.941C106.281 126.941 104.342 126.941 102.402 126.941C101.846 126.941 101.313 126.882 101.081 126.283C100.849 125.684 101.155 125.249 101.619 124.856C105.616 121.47 109.606 118.076 113.589 114.674C114.267 114.097 114.806 113.999 115.227 114.462C115.448 114.718 115.576 115.041 115.591 115.379C115.616 118.817 115.61 122.256 115.605 125.694C115.605 126.566 115.227 126.93 114.313 126.934C112.282 126.948 110.25 126.941 108.219 126.941ZM113.499 117.496L104.885 124.819H113.499V117.496Z" fill="#FF5F15"/>
<path d="M103.525 84.9839C103.525 83.4837 103.489 81.9822 103.547 80.4835C103.57 80.0363 103.743 79.6098 104.037 79.2723C105.471 77.7694 106.942 76.3017 108.448 74.8692C108.786 74.5712 109.216 74.3986 109.666 74.3802C112.643 74.3386 115.622 74.3538 118.6 74.3594C119.62 74.3594 119.963 74.7094 119.966 75.7484C119.966 78.7042 119.992 81.6586 119.945 84.613C119.917 85.1065 119.721 85.5755 119.389 85.9423C118 87.4174 116.552 88.8522 115.083 90.2482C114.733 90.5641 114.285 90.7509 113.814 90.7774C110.837 90.8232 107.858 90.8051 104.879 90.801C103.862 90.801 103.528 90.4509 103.525 89.412C103.522 87.9369 103.525 86.459 103.525 84.9839ZM105.663 81.2599V88.6841H113.055V81.2572L105.663 81.2599ZM116.279 76.5374C116.204 76.4968 116.123 76.4669 116.04 76.4485C114.059 76.4429 112.078 76.4429 110.098 76.4485C109.961 76.4376 109.825 76.4728 109.711 76.5485C108.878 77.3819 108.053 78.225 107.137 79.1584C109.324 79.1584 111.369 79.1584 113.414 79.1584C113.549 79.1682 113.683 79.1315 113.795 79.0542C114.621 78.2208 115.434 77.3888 116.279 76.5318V76.5374ZM115.181 87.0521L115.37 87.1646C116.086 86.4173 116.819 85.6881 117.501 84.913C117.718 84.6603 117.846 84.3438 117.867 84.0116C117.9 82.2128 117.885 80.4127 117.881 78.6139C117.881 78.4458 117.84 78.2778 117.792 77.8944C116.886 78.8375 116.104 79.6445 115.337 80.4654C115.238 80.5874 115.184 80.7392 115.183 80.896C115.178 82.9462 115.181 84.9964 115.181 87.0465V87.0521Z" fill="#FF5F15"/>
<path d="M110.434 102.475C109.026 102.475 107.618 102.482 106.21 102.475C105.41 102.475 105.034 102.121 105.038 101.438C105.042 100.754 105.442 100.406 106.228 100.404C109.044 100.396 111.86 100.396 114.677 100.404C115.442 100.404 115.87 100.807 115.865 101.456C115.859 102.105 115.434 102.471 114.659 102.477C113.25 102.485 111.843 102.475 110.434 102.475Z" fill="#FF5F15"/>
<path d="M107.775 106.612C107.2 106.612 106.623 106.629 106.048 106.612C105.409 106.59 105.059 106.231 105.039 105.626C105.02 104.995 105.38 104.567 106.035 104.551C107.186 104.523 108.337 104.523 109.488 104.551C110.099 104.566 110.47 104.995 110.473 105.577C110.473 106.195 110.094 106.59 109.432 106.612C108.881 106.627 108.328 106.612 107.775 106.612Z" fill="#FF5F15"/>
</g>
</g>
<defs>
<clipPath id="clip0_48_54">
<rect width="218" height="182" fill="white"/>
</clipPath>
<clipPath id="clip1_48_54">
<rect width="71" height="71" fill="white" transform="translate(55 61)"/>
</clipPath>
</defs>
</svg>
