<svg width="218" height="182" viewBox="0 0 218 182" fill="none" xmlns="http://www.w3.org/2000/svg">
<g clip-path="url(#clip0_50_132)">
<path d="M89.6987 165.429C130.081 165.429 162.818 132.711 162.818 92.3498C162.818 51.989 130.081 19.2701 89.6987 19.2701C49.3161 19.2701 16.5796 51.989 16.5796 92.3498C16.5796 132.711 49.3161 165.429 89.6987 165.429Z" fill="white"/>
<path d="M89.7405 182C74.9839 182.007 60.4535 178.375 47.437 171.427C34.4205 164.479 23.3199 154.429 15.1189 142.168C6.91776 129.906 1.86946 115.813 0.421333 101.135C-1.0268 86.4577 1.16995 71.6499 6.81691 58.0239C12.4639 44.3979 21.3867 32.3745 32.7946 23.0192C44.2025 13.6638 57.7432 7.26549 72.2169 4.39115C86.6905 1.51681 101.65 2.25524 115.77 6.54097C129.89 10.8267 142.734 18.5274 153.164 28.9606L151.197 30.9264C136.973 16.6763 118.244 7.79822 98.2034 5.80553C78.1626 3.81284 58.0507 8.82895 41.2963 19.9988C24.542 31.1686 12.1824 47.8005 6.32481 67.0591C0.467199 86.3178 1.47421 107.011 9.17404 125.61C16.8739 144.21 30.7899 159.565 48.5496 169.057C66.3094 178.549 86.8135 181.591 106.566 177.664C126.319 173.737 144.097 163.084 156.871 147.522C169.644 131.959 176.622 112.451 176.614 92.3221V90.9378H214.995V93.7065H179.384C179.045 117.243 169.451 139.701 152.676 156.224C135.901 172.747 113.293 182.006 89.7405 182Z" fill="white"/>
<path d="M205.811 103.674L203.928 101.653L213.928 92.3498L203.928 83.0609L205.811 81.0259L218 92.3498L205.811 103.674Z" fill="white"/>
<path d="M169.285 52.0998C178.735 42.6551 178.735 27.3424 169.285 17.8977C159.836 8.45309 144.515 8.45306 135.065 17.8977C125.615 27.3424 125.615 42.6552 135.065 52.0998C144.515 61.5445 159.836 61.5444 169.285 52.0998Z" fill="#FF5F15"/>
<path d="M152.181 61.2574C146.976 61.2574 141.887 59.7148 137.56 56.8246C133.232 53.9344 129.859 49.8266 127.867 45.0204C125.875 40.2142 125.354 34.9256 126.369 29.8234C127.385 24.7212 129.891 20.0346 133.572 16.3561C137.252 12.6776 141.941 10.1725 147.046 9.15763C152.151 8.14274 157.443 8.66362 162.252 10.6544C167.06 12.6452 171.17 16.0164 174.062 20.3419C176.954 24.6673 178.497 29.7527 178.497 34.9548C178.497 38.4089 177.817 41.8292 176.494 45.0204C175.172 48.2116 173.233 51.1111 170.789 53.5535C168.346 55.996 165.444 57.9334 162.252 59.2552C159.059 60.5771 155.637 61.2574 152.181 61.2574V61.2574ZM152.181 12.8883C147.797 12.8883 143.513 14.1874 139.868 16.6212C136.224 19.055 133.383 22.5143 131.706 26.5616C130.029 30.6089 129.59 35.0625 130.445 39.359C131.3 43.6556 133.411 47.6023 136.51 50.7C139.609 53.7976 143.558 55.9072 147.857 56.7618C152.156 57.6165 156.612 57.1778 160.661 55.5014C164.711 53.8249 168.172 50.986 170.607 47.3435C173.042 43.701 174.342 39.4186 174.342 35.0379C174.342 29.1634 172.007 23.5296 167.851 19.3758C163.695 15.222 158.058 12.8883 152.181 12.8883Z" fill="white"/>
<path d="M147.014 42.6795C146.163 42.739 145.311 42.5853 144.535 42.2323C143.758 41.8794 143.082 41.3384 142.568 40.6583C141.597 39.027 141.085 37.1642 141.085 35.2663C141.085 33.3683 141.597 31.5056 142.568 29.8743C143.123 29.2395 143.808 28.7307 144.576 28.3822C145.344 28.0336 146.177 27.8533 147.021 27.8533C147.865 27.8533 148.698 28.0336 149.466 28.3822C150.234 28.7307 150.919 29.2395 151.474 29.8743C152.445 31.5056 152.957 33.3683 152.957 35.2663C152.957 37.1642 152.445 39.027 151.474 40.6583C150.959 41.3404 150.28 41.8827 149.501 42.2358C148.722 42.5888 147.867 42.7413 147.014 42.6795V42.6795ZM144.909 31.8124C144.008 34.0318 144.008 36.5147 144.909 38.7341C145.11 39.1104 145.409 39.4251 145.775 39.6446C146.141 39.864 146.56 39.98 146.986 39.98C147.413 39.98 147.832 39.864 148.198 39.6446C148.564 39.4251 148.863 39.1104 149.064 38.7341C149.965 36.5147 149.965 34.0318 149.064 31.8124C148.86 31.4398 148.56 31.129 148.194 30.9125C147.828 30.696 147.411 30.5817 146.986 30.5817C146.562 30.5817 146.144 30.696 145.779 30.9125C145.413 31.129 145.113 31.4398 144.909 31.8124V31.8124Z" fill="white"/>
<path d="M154.327 28.1853H160.131V42.4856H157.056V30.8848H154.286L154.327 28.1853Z" fill="white"/>
<g clip-path="url(#clip1_50_132)">
<path d="M126 115.113C125.084 117.226 124.286 117.738 121.917 117.738C115.411 117.738 108.905 117.738 102.398 117.738C101.97 117.738 101.513 117.773 101.129 117.632C100.533 117.414 100.272 117.632 99.9334 118.092C95.2325 124.546 88.9022 128.266 80.8427 128.917C67.7638 129.974 56.1143 121.255 53.5053 108.531C50.6365 94.546 60.2925 80.7898 74.6038 78.5605C76.4416 78.2787 78.3366 78.3407 80.2044 78.2463C80.4357 78.235 80.6699 78.2463 80.8284 78.2463C81.114 76.6412 81.3268 75.0644 81.7109 73.5312C81.9865 72.4264 82.4606 71.3653 82.9132 70.3127C83.2917 69.4306 84.117 69.1262 84.8839 69.4926C85.615 69.842 85.872 70.6368 85.4879 71.4781C82.9518 77.0372 83.3059 82.4272 86.4132 87.6834C86.6215 88.076 86.74 88.5089 86.7602 88.9516C86.9485 91.104 86.579 93.2682 85.6864 95.2407C85.6093 95.4084 85.5536 95.5846 85.4665 95.8143C88.104 96.2215 90.6172 95.9552 92.9948 94.8588C93.9102 94.4361 94.7084 94.4361 95.6452 94.7489C105.678 98.0999 116.575 91.3472 117.892 80.9969C119.078 71.6711 112.751 63.3698 103.381 61.9944C100.256 61.5364 97.2402 61.9761 94.3114 63.1457C93.9044 63.3078 93.4432 63.4712 93.0262 63.436C92.3408 63.381 91.9153 62.9005 91.8353 62.2269C91.7553 61.5534 92.0923 61.0503 92.7221 60.7685C94.6283 59.9219 96.6557 59.3714 98.7325 59.1366C98.9866 59.1071 99.238 59.0436 99.4907 58.9957H102.489C102.644 59.0474 102.802 59.087 102.962 59.1141C112.5 60.0456 120.041 67.6071 120.855 77.0597C121.689 86.7534 115.071 95.7283 105.483 97.9153C105.007 98.0238 104.526 98.1154 104.015 98.2225C104.187 99.3879 104.349 100.486 104.516 101.614H105.343C111.016 101.614 116.69 101.614 122.363 101.614C122.718 101.607 123.073 101.634 123.422 101.695C124.799 101.977 125.523 102.938 126.006 104.142L126 115.113ZM70.3356 109.175C66.5942 104.492 67.2897 99.0286 69.9971 95.5057C72.5032 92.242 77.7082 89.6915 83.7058 92.2928C83.8814 90.8723 84.1956 89.5576 83.4573 88.1287C82.6248 86.5194 82.0936 84.7467 81.4881 83.0374C81.2739 82.4301 81.2254 81.7692 81.104 81.1449C70.4598 79.9739 59.9027 86.542 56.7754 97.3939C55.1946 102.878 55.6844 108.244 58.1591 113.403C59.3182 115.832 60.9315 118.023 62.9143 119.862C63.9196 115.207 66.3929 111.714 70.3356 109.175ZM78.7835 126.225C83.4359 126.175 87.6941 124.933 91.554 122.392C91.8639 122.187 92.0709 122.006 92.0181 121.558C91.5011 117.173 89.3363 113.833 85.565 111.481C85.1638 111.232 84.8639 111.222 84.4226 111.469C80.637 113.582 76.8372 113.556 73.063 111.424C72.7389 111.239 72.5161 111.192 72.1734 111.397C68.3692 113.665 66.2001 116.977 65.5789 121.307C65.4976 121.871 65.7003 122.192 66.173 122.495C70.0157 124.957 74.2325 126.173 78.7835 126.218V126.225ZM97.8343 109.666C98.464 110.081 98.9766 110.512 99.5678 110.794C100.97 111.471 101.65 112.485 101.371 114.054C101.263 114.67 101.546 114.939 102.211 114.938C108.908 114.924 115.606 114.924 122.304 114.938C122.96 114.938 123.161 114.697 123.161 114.061C123.135 111.18 123.15 108.297 123.15 105.413C123.15 104.44 123.138 104.427 122.15 104.427C115.809 104.427 109.467 104.427 103.125 104.427C101.197 104.427 101.336 104.171 101.379 106.142C101.399 107.02 101.077 107.603 100.326 108.047C99.4993 108.539 98.7096 109.093 97.8343 109.666ZM82.6405 94.9969C82.4063 94.8772 82.245 94.7842 82.0693 94.7151C77.0814 92.5295 71.3851 95.7283 70.6626 101.117C70.5112 102.33 70.6404 103.561 71.0406 104.718C71.4408 105.874 72.1014 106.926 72.973 107.794C73.8445 108.663 74.9041 109.325 76.0723 109.731C77.2404 110.137 78.4866 110.276 79.7172 110.138C80.9477 110 82.1306 109.589 83.1769 108.935C84.2231 108.281 85.1055 107.402 85.7577 106.363C86.41 105.324 86.815 104.152 86.9424 102.937C87.0697 101.721 86.9162 100.493 86.4932 99.3442C86.3361 98.9215 86.1062 98.7256 85.6364 98.6706C84.7414 98.5687 83.8535 98.4134 82.9775 98.2056C81.9708 97.9618 81.5795 97.043 82.0308 96.1186C82.2078 95.7593 82.412 95.4155 82.6405 94.9969ZM101.633 101.555C101.478 100.624 101.357 99.7233 101.157 98.8369C101.117 98.6593 100.787 98.4254 100.586 98.4212C98.614 98.3798 96.6586 98.0556 94.7812 97.4587C94.6039 97.3994 94.4131 97.3916 94.2314 97.4362C92.6307 97.9139 91.0356 98.4085 89.3677 98.9215C90.4059 102.585 89.7362 106.053 87.2158 109.169C91.2141 111.705 93.6703 115.261 94.677 119.878C96.1329 118.512 97.3887 116.951 98.4083 115.242C98.8238 114.538 98.4897 113.477 97.7928 113.022C96.7447 112.337 95.6909 111.659 94.6513 110.964C93.5275 110.216 93.5332 109.113 94.6627 108.364C95.6823 107.693 96.699 106.989 97.7557 106.362C98.3269 106.021 98.5511 105.638 98.5354 104.961C98.5011 103.446 99.4065 102.219 100.757 101.779C101.023 101.693 101.299 101.634 101.636 101.555H101.633Z" fill="#FF5F15"/>
<path d="M97.8483 73.3354C98.0497 72.931 98.2239 72.6309 98.3495 72.318C98.8293 71.1217 99.272 69.9112 99.769 68.7219C100.227 67.6298 100.898 66.6983 102.114 66.3263C104.266 65.6753 106.54 67.3127 106.612 69.5603C106.648 70.5876 106.612 71.6177 106.612 72.7563C107.103 72.7563 107.544 72.7464 107.986 72.7563C110.457 72.8183 112.465 74.4895 112.668 76.9063C112.822 78.6566 112.794 80.4179 112.582 82.1624C112.2 85.1696 109.545 87.4792 106.472 87.5496C104.079 87.6032 101.682 87.4707 99.2877 87.4172C99.1684 87.4173 99.0499 87.3987 98.9364 87.3622C98.0796 87.0691 97.2857 86.838 96.5089 87.6441C96.2518 87.9104 95.6721 87.947 95.2365 87.9611C94.0028 88.0006 92.7661 87.9794 91.5323 87.9738C89.7645 87.9653 88.7078 86.931 88.6992 85.1639C88.6849 82.3752 88.6992 79.5865 88.6992 76.7978C88.6992 76.0016 88.6878 75.204 88.6992 74.4022C88.7306 72.6844 89.7888 71.6501 91.5152 71.6416C92.5833 71.6416 93.6572 71.6416 94.721 71.6416C96.3661 71.6529 96.8473 71.9009 97.8483 73.3354ZM103.393 84.9159L103.407 84.775C104.38 84.775 105.355 84.8116 106.325 84.7665C107.26 84.7269 108.146 84.3398 108.805 83.6828C109.463 83.0258 109.846 82.1476 109.876 81.2239C109.922 79.9839 109.908 78.741 109.876 77.5009C109.851 76.3736 109.085 75.6197 107.943 75.5831C107.16 75.5577 106.372 75.5831 105.594 75.5732C104.286 75.5661 103.772 75.0687 103.767 73.7977C103.767 72.6046 103.767 71.4105 103.767 70.2156C103.767 69.7139 103.817 69.0953 103.168 69.0756C102.898 69.0671 102.506 69.5899 102.349 69.9492C101.822 71.1484 101.395 72.3913 100.896 73.6032C100.396 74.8151 99.6104 75.7719 98.2739 76.196C98.1039 76.2496 97.934 76.6019 97.9311 76.8175C97.9054 78.8777 97.9154 80.9379 97.9154 82.9995C97.9154 84.1493 97.8969 84.2536 99.025 84.4551C100.467 84.706 101.938 84.7694 103.393 84.9159ZM95.0495 74.5135H91.6037V85.1188H95.0495V74.5135Z" fill="#FF5F15"/>
<path d="M89.4094 65.64C89.4079 66.0044 89.2603 66.3534 88.9989 66.6109C88.7375 66.8683 88.3835 67.0132 88.0142 67.0139C87.8241 67.021 87.6344 66.9903 87.4565 66.9236C87.2786 66.8569 87.1161 66.7557 86.9786 66.6259C86.8411 66.496 86.7314 66.3403 86.6561 66.1678C86.5808 65.9954 86.5413 65.8098 86.5401 65.622C86.5388 65.4342 86.5758 65.2481 86.6489 65.0747C86.7219 64.9013 86.8295 64.7441 86.9653 64.6125C87.101 64.4809 87.2622 64.3776 87.4392 64.3086C87.6162 64.2397 87.8054 64.2065 87.9957 64.2111C88.1847 64.2093 88.3722 64.2453 88.5468 64.3169C88.7215 64.3885 88.8796 64.4942 89.0117 64.6277C89.1437 64.7612 89.2471 64.9197 89.3154 65.0937C89.3838 65.2677 89.4157 65.4535 89.4094 65.64V65.64Z" fill="#FF5F15"/>
<path d="M105.892 111.067C105.708 111.072 105.525 111.041 105.353 110.976C105.181 110.91 105.024 110.812 104.891 110.686C104.758 110.56 104.652 110.409 104.579 110.242C104.505 110.076 104.466 109.896 104.464 109.714C104.456 109.337 104.6 108.971 104.864 108.698C105.129 108.424 105.492 108.266 105.875 108.257C106.26 108.263 106.626 108.417 106.896 108.688C107.166 108.958 107.317 109.322 107.317 109.702C107.309 110.068 107.155 110.417 106.888 110.672C106.621 110.928 106.264 111.069 105.892 111.067V111.067Z" fill="#FF5F15"/>
<path d="M112.318 111.067C112.134 111.074 111.95 111.045 111.778 110.982C111.605 110.918 111.447 110.821 111.313 110.696C111.179 110.572 111.071 110.422 110.996 110.256C110.921 110.089 110.881 109.91 110.877 109.728C110.869 109.541 110.899 109.354 110.964 109.178C111.03 109.002 111.131 108.841 111.261 108.704C111.391 108.567 111.547 108.457 111.72 108.38C111.894 108.303 112.081 108.262 112.271 108.257C112.656 108.259 113.024 108.411 113.297 108.678C113.569 108.946 113.725 109.308 113.729 109.687C113.724 110.054 113.573 110.404 113.309 110.662C113.046 110.92 112.69 111.065 112.318 111.067Z" fill="#FF5F15"/>
<path d="M118.705 111.076C118.521 111.079 118.338 111.046 118.167 110.978C117.995 110.911 117.839 110.811 117.708 110.684C117.576 110.556 117.471 110.404 117.4 110.237C117.328 110.069 117.291 109.889 117.29 109.707C117.287 109.519 117.321 109.332 117.39 109.157C117.46 108.982 117.565 108.823 117.698 108.688C117.83 108.553 117.989 108.446 118.164 108.372C118.339 108.298 118.528 108.259 118.718 108.257C119.09 108.267 119.445 108.415 119.71 108.673C119.975 108.931 120.131 109.278 120.146 109.645C120.15 109.833 120.116 110.021 120.045 110.195C119.974 110.37 119.868 110.529 119.734 110.662C119.599 110.796 119.439 110.901 119.262 110.972C119.086 111.043 118.896 111.078 118.705 111.076Z" fill="#FF5F15"/>
</g>
</g>
<defs>
<clipPath id="clip0_50_132">
<rect width="218" height="182" fill="white"/>
</clipPath>
<clipPath id="clip1_50_132">
<rect width="73" height="70" fill="white" transform="translate(53 59)"/>
</clipPath>
</defs>
</svg>
