<svg width="185" height="182" viewBox="0 0 185 182" fill="none" xmlns="http://www.w3.org/2000/svg">
<g clip-path="url(#clip0_50_133)">
<path d="M162.123 103.219C168.147 63.3092 140.624 26.0799 100.649 20.0654C60.6742 14.051 23.3844 41.5289 17.3602 81.439C11.3359 121.349 38.8584 158.578 78.8335 164.593C118.809 170.607 156.098 143.129 162.123 103.219Z" fill="white"/>
<path d="M89.7824 182C75.0097 182.006 60.4636 178.375 47.433 171.427C34.4024 164.479 23.2897 154.429 15.0797 142.167C6.86968 129.906 1.8159 115.812 0.3662 101.135C-1.0835 86.4576 1.11563 71.6498 6.76873 58.0238C12.4218 44.3977 21.3543 32.3743 32.7746 23.019C44.1949 13.6637 57.7503 7.26537 72.2396 4.39103C86.729 1.51669 101.705 2.25512 115.84 6.54084C129.975 10.8266 142.833 18.5273 153.275 28.9605L151.32 30.9263C137.08 16.6762 118.331 7.7981 98.2683 5.80541C78.2058 3.81272 58.072 8.82883 41.2995 19.9986C24.5269 31.1684 12.1539 47.8004 6.28988 67.059C0.425911 86.3177 1.4341 107.011 9.14229 125.61C16.8505 144.21 30.7816 159.565 48.5607 169.057C66.3397 178.549 86.8661 181.591 106.64 177.664C126.414 173.737 144.212 163.084 156.999 147.522C169.787 131.959 176.772 112.451 176.764 92.322H179.537C179.546 104.098 177.23 115.759 172.72 126.64C168.211 137.521 161.597 147.408 153.256 155.735C144.916 164.061 135.014 170.664 124.115 175.167C113.216 179.669 101.535 181.981 89.7407 181.972L89.7824 182Z" fill="white"/>
<path d="M176.338 38.8707C178.47 25.6847 169.492 13.2698 156.284 11.1412C143.077 9.0126 130.641 17.9764 128.509 31.1624C126.377 44.3485 135.356 56.7634 148.563 58.892C161.771 61.0206 174.206 52.0568 176.338 38.8707Z" fill="#FF5F15"/>
<path d="M152.345 61.2573C147.135 61.2573 142.041 59.7146 137.709 56.8245C133.376 53.9343 129.999 49.8264 128.005 45.0203C126.011 40.2141 125.49 34.9255 126.506 29.8233C127.523 24.7211 130.032 20.0344 133.716 16.356C137.401 12.6775 142.095 10.1724 147.206 9.15751C152.316 8.14262 157.613 8.66349 162.427 10.6543C167.241 12.6451 171.356 16.0163 174.251 20.3417C177.145 24.6672 178.691 29.7525 178.691 34.9547C178.691 38.4088 178.009 41.8291 176.685 45.0203C175.361 48.2114 173.421 51.111 170.974 53.5534C168.528 55.9958 165.624 57.9333 162.427 59.2551C159.231 60.5769 155.805 61.2573 152.345 61.2573V61.2573ZM152.345 12.8882C147.957 12.8882 143.668 14.1873 140.02 16.6211C136.371 19.0549 133.528 22.5142 131.849 26.5615C130.169 30.6088 129.73 35.0623 130.586 39.3589C131.442 43.6555 133.555 47.6022 136.658 50.6999C139.76 53.7975 143.714 55.907 148.017 56.7617C152.321 57.6163 156.781 57.1777 160.835 55.5013C164.889 53.8248 168.354 50.9859 170.792 47.3434C173.23 43.7009 174.531 39.4185 174.531 35.0377C174.531 29.1633 172.194 23.5295 168.033 19.3757C163.872 15.2218 158.229 12.8882 152.345 12.8882Z" fill="white"/>
<path d="M144.955 42.6794C144.103 42.7389 143.25 42.5852 142.473 42.2322C141.696 41.8793 141.019 41.3383 140.504 40.6582C139.532 39.0269 139.02 37.1641 139.02 35.2662C139.02 33.3682 139.532 31.5054 140.504 29.8742C141.059 29.2397 141.743 28.7311 142.51 28.3826C143.278 28.0342 144.112 27.8539 144.955 27.8539C145.799 27.8539 146.632 28.0342 147.4 28.3826C148.168 28.7311 148.852 29.2397 149.406 29.8742C150.378 31.5054 150.891 33.3682 150.891 35.2662C150.891 37.1641 150.378 39.0269 149.406 40.6582C148.891 41.3383 148.215 41.8793 147.437 42.2322C146.66 42.5852 145.807 42.7389 144.955 42.6794V42.6794ZM142.834 31.8122C141.95 34.0352 141.95 36.511 142.834 38.734C143.03 39.1276 143.333 39.4586 143.708 39.69C144.083 39.9214 144.515 40.044 144.955 40.044C145.396 40.044 145.828 39.9214 146.202 39.69C146.577 39.4586 146.88 39.1276 147.077 38.734C147.96 36.511 147.96 34.0352 147.077 31.8122C146.876 31.4228 146.572 31.096 146.198 30.8679C145.824 30.6397 145.394 30.519 144.955 30.519C144.517 30.519 144.087 30.6397 143.712 30.8679C143.338 31.096 143.034 31.4228 142.834 31.8122V31.8122Z" fill="white"/>
<path d="M153.191 30.9124V28.1437H161.982V30.3586L159.056 33.7087C160.069 33.826 161 34.3174 161.667 35.086C162.334 35.8547 162.689 36.845 162.662 37.8618C162.693 38.5293 162.573 39.1954 162.309 39.8094C162.044 40.4234 161.643 40.9693 161.136 41.4057C160.026 42.2809 158.64 42.7325 157.226 42.6793C155.483 42.6318 153.798 42.0466 152.401 41.0042L153.704 38.457C154.753 39.2741 156.024 39.7565 157.351 39.8414C157.916 39.8657 158.472 39.6999 158.932 39.3707C159.143 39.2091 159.311 38.9985 159.422 38.7573C159.533 38.5161 159.584 38.2515 159.569 37.9864C159.571 37.7145 159.506 37.4464 159.38 37.2053C159.255 36.9641 159.072 36.757 158.848 36.602C158.254 36.2232 157.556 36.0393 156.852 36.076C156.198 36.1189 155.554 36.254 154.938 36.4774V34.1794L157.711 30.94L153.191 30.9124Z" fill="white"/>
</g>
<g clip-path="url(#clip1_50_133)">
<path d="M73.1877 124C72.3565 123.324 72.2734 123.045 72.596 121.99C72.9185 120.935 73.2324 119.913 73.5525 118.875C73.8366 117.952 74.1455 117.722 75.1057 117.718H76.2011V77.8937C75.5548 77.6469 74.8092 77.5753 74.4147 77.1656C74.0425 76.7793 74.0425 76.0401 73.8502 75.3688H70.023V78.6206C70.492 78.6206 70.9584 78.6206 71.4236 78.6206C72.5873 78.6354 73.1394 79.1673 73.1604 80.3089C73.1716 81.232 73.1728 82.1601 73.1604 83.0795C73.1456 84.1902 72.596 84.7455 71.4795 84.7579C69.8915 84.7735 68.3031 84.7735 66.7144 84.7579C65.5358 84.7467 65.0185 84.2173 65.0123 83.0548C65.0123 82.1107 65.0036 81.1666 65.0123 80.2225C65.0235 79.1747 65.5582 78.6465 66.6251 78.6182C67.0965 78.6071 67.5691 78.6182 68.0902 78.6182V75.3317C67.5679 75.3317 67.0394 75.3416 66.5109 75.3317C65.5321 75.3108 65.0222 74.8085 65.0148 73.8434C65.0048 72.8174 65.0048 71.7915 65.0148 70.7655C65.0235 69.8066 65.511 69.25 66.4489 69.3142C67.3595 69.3747 68.0616 69.0489 68.775 68.5565C72.3094 66.1413 75.8724 63.7694 79.4105 61.3592C79.6444 61.181 79.9197 61.0644 80.2108 61.0199C80.502 60.9755 80.7998 61.0047 81.0766 61.1049C89.8938 63.8019 98.7152 66.4824 107.541 69.1464C107.856 69.2378 108.182 69.2848 108.51 69.2858C110.633 69.3006 112.759 69.2723 114.882 69.3081C115.612 69.3295 116.308 69.6166 116.838 70.1148C117.369 70.613 117.697 71.2877 117.761 72.0107C117.885 73.6015 116.892 74.9615 115.343 75.2416C114.7 75.3576 114.034 75.3354 113.278 75.3811V76.013C113.278 78.0246 113.278 80.0362 113.278 82.0478C113.278 82.9696 113.081 83.1967 112.178 83.3571C111.88 83.4002 111.608 83.5487 111.411 83.7753C111.214 84.002 111.106 84.2917 111.106 84.5912C111.121 84.9022 111.25 85.1969 111.47 85.4184C111.69 85.6399 111.985 85.7725 112.297 85.7908C112.599 85.797 112.893 85.6934 113.124 85.4993C113.354 85.3053 113.506 85.0342 113.55 84.7369C113.56 84.6147 113.577 84.4932 113.6 84.3728C113.75 83.8792 114.085 83.5953 114.608 83.6607C115.132 83.7261 115.421 84.0556 115.412 84.5863C115.394 85.8266 114.817 86.7522 113.709 87.3013C112.548 87.8789 111.414 87.7469 110.406 86.9422C110.003 86.6268 109.687 86.2152 109.486 85.7456C109.286 85.276 109.208 84.7637 109.259 84.2561C109.311 83.7485 109.49 83.262 109.781 82.8419C110.072 82.4218 110.465 82.0815 110.924 81.8528C111.323 81.6491 111.435 81.4295 111.431 81.0136C111.411 79.1501 111.423 77.2853 111.423 75.3293H110.66C107.174 75.3293 103.688 75.3293 100.203 75.3293C99.9768 75.3387 99.7506 75.3179 99.5303 75.2676C99.3246 75.2238 99.1428 75.1054 99.0203 74.9353C98.8978 74.7653 98.8434 74.5559 98.8678 74.3481C98.8679 74.1285 98.9532 73.9173 99.106 73.7587C99.2588 73.6 99.4672 73.5062 99.6878 73.4966C99.8942 73.4807 100.101 73.4765 100.308 73.4843C104.97 73.4843 109.632 73.4843 114.293 73.4843C114.56 73.4936 114.826 73.467 115.086 73.4053C115.348 73.3365 115.576 73.175 115.728 72.9511C115.879 72.7272 115.943 72.4561 115.908 72.1885C115.884 71.9209 115.765 71.6706 115.574 71.4814C115.382 71.2922 115.129 71.1764 114.86 71.1543C114.695 71.1411 114.529 71.1365 114.364 71.1407H85.9012C86.0402 71.9552 86.1667 72.6944 86.3032 73.4855H87.0066C89.7293 73.4855 92.4519 73.4855 95.1746 73.4855C95.9698 73.4855 96.3705 73.8039 96.3631 74.4099C96.3556 75.0158 95.9425 75.3293 95.1535 75.3305C92.5756 75.3305 89.9972 75.3305 87.4185 75.3305H86.8701C86.684 76.008 86.6853 76.7645 86.3069 77.1718C85.9285 77.579 85.1643 77.6494 84.482 77.8987V117.72C84.9336 117.72 85.3616 117.72 85.7896 117.72C86.426 117.72 86.8552 118.018 87.0426 118.617C87.4334 119.868 87.8192 121.123 88.1814 122.383C88.3923 123.124 88.2174 123.453 87.4371 124.001L73.1877 124ZM85.57 69.2698H101.193L101.22 69.1649L81.2937 63.1178V66.9201C82.1348 66.9201 82.935 66.9089 83.7352 66.9201C84.7276 66.9386 85.1966 67.3384 85.3951 68.3109C85.4559 68.6132 85.5055 68.9156 85.57 69.2698V69.2698ZM84.8058 75.8106C84.4212 73.5793 84.0354 71.3826 83.6694 69.1834C83.6049 68.7996 83.3915 68.7601 83.0677 68.7613C81.3793 68.7724 79.6896 68.8033 78.0024 68.749C77.3003 68.7268 76.9802 68.923 76.9814 69.6326C76.9814 69.9152 76.8834 70.1966 76.835 70.478C76.5286 72.2477 76.2234 74.0162 75.9133 75.8106H84.8058ZM74.509 122.12H86.1555C85.8876 121.242 85.6333 120.41 85.3752 119.567C82.0864 119.567 78.856 119.567 75.6242 119.577C75.4816 119.577 75.2521 119.7 75.2124 119.824C74.9605 120.569 74.7459 121.333 74.5127 122.12H74.509ZM66.8893 73.4472H74.4308C74.5623 72.6784 74.6876 71.9416 74.8203 71.1728H66.8893V73.4472ZM79.3559 66.9188V63.6349C76.577 65.507 73.8701 67.3372 71.1681 69.1538L71.2152 69.2908H75.1441C75.2024 68.9971 75.257 68.7589 75.2955 68.517C75.4878 67.3236 75.9393 66.9299 77.1464 66.9201C77.8623 66.9151 78.5781 66.9188 79.3584 66.9188H79.3559ZM66.8831 82.9153H70.0267C71.2971 82.9153 71.2971 82.9153 71.2971 81.6627C71.2971 80.4681 71.2971 80.4681 70.0925 80.4681H66.8831V82.9153ZM82.538 81.4048V77.7407H79.2021L82.538 81.4048ZM79.2852 112.64L82.5368 116.204V112.64H79.2852ZM82.5467 88.3812V84.8072H79.3038L82.5467 88.3812ZM79.3013 98.7341L82.5479 102.299V98.7292L79.3013 98.7341ZM82.543 109.256V105.688H79.3038L82.543 109.256ZM82.543 95.3342V91.7664H79.3013L82.543 95.3342ZM81.3805 89.8547C80.2715 88.6342 79.253 87.5099 78.1476 86.3017V89.8547H81.3805ZM78.1476 100.221V103.754H81.3619L78.1476 100.221ZM78.1364 117.689H81.3744L78.1364 114.141V117.689ZM78.1364 82.8598H81.347L78.1364 79.3302V82.8598ZM81.3768 96.8126L78.1513 93.2707V96.8126H81.3768ZM78.16 107.196V110.688H81.3359L78.16 107.196Z" fill="#FF5F15"/>
<path d="M91.8808 124C91.4963 123.701 91.1228 123.374 91.3201 122.828C91.6923 121.784 92.6562 122.302 93.4378 122.087V121.402C93.4378 118.384 93.4378 115.367 93.4378 112.351C93.4287 112.126 93.4415 111.9 93.4762 111.678C93.5718 111.216 93.9055 110.899 94.3446 110.984C94.6672 111.047 94.9885 111.343 95.213 111.615C95.3371 111.773 95.2912 112.088 95.2924 112.333C95.2924 115.329 95.2924 118.326 95.2924 121.322V122.108H101.659V121.454C101.659 119.566 101.659 117.678 101.659 115.79C101.659 114.878 102.109 114.432 103.034 114.425C104.744 114.415 106.456 114.415 108.168 114.425C109.161 114.425 109.577 114.862 109.578 115.873C109.578 117.721 109.578 119.568 109.578 121.415V122.119H115.948V103.046H115.277C113.175 103.046 111.071 103.046 108.966 103.046C107.78 103.046 107.312 102.581 107.299 101.41C107.299 101.025 107.299 100.64 107.299 100.234H95.29V100.923C95.29 102.975 95.29 105.028 95.29 107.08C95.3009 107.326 95.2796 107.571 95.2267 107.811C95.1026 108.265 94.7429 108.559 94.3111 108.445C93.9948 108.361 93.7144 108.031 93.4899 107.753C93.3844 107.622 93.4378 107.357 93.4378 107.152C93.4378 104.833 93.4452 102.514 93.4303 100.194C93.4303 99.4956 93.5693 98.9144 94.2069 98.496C94.3645 98.3923 94.4153 98.0394 94.4166 97.8012C94.429 93.9421 94.4253 90.0843 94.4253 86.2253C94.4253 86.0204 94.4178 85.8143 94.4377 85.6082C94.4885 85.0565 94.8434 84.7122 95.3446 84.7098C95.8457 84.7073 96.213 85.0467 96.2663 85.5971C96.2936 85.8587 96.2663 86.1253 96.2663 86.4375H104.659C104.672 86.2055 104.685 85.9698 104.697 85.7353C104.733 85.0886 105.069 84.7147 105.61 84.7098C106.151 84.7048 106.538 85.0936 106.546 85.7773C106.563 87.0904 106.546 88.4035 106.546 89.7178C106.546 91.0667 106.546 92.4155 106.546 93.7977H114.966C114.966 93.3041 114.966 92.8179 114.966 92.3316C114.973 91.5307 115.279 91.1234 115.871 91.1148C116.484 91.1049 116.818 91.5319 116.819 92.3612C116.824 95.1108 116.824 97.8608 116.819 100.611C116.819 101.004 116.869 101.285 117.256 101.522C117.779 101.842 117.846 102.414 117.846 102.993C117.84 107.795 117.84 112.598 117.846 117.4V122.151C118.169 122.151 118.45 122.165 118.73 122.151C119.265 122.122 119.746 122.225 119.937 122.786C120.128 123.346 119.813 123.719 119.354 124.001L91.8808 124ZM96.3097 93.8014H104.659V88.3911H96.3072L96.3097 93.8014ZM114.94 95.7205H106.613V98.3911C108.948 97.9678 109.374 99.3068 109.139 101.165H114.94V95.7205ZM107.693 122.13V116.307H103.553V122.125L107.693 122.13ZM104.659 95.7328H96.3234V98.317H104.659V95.7328Z" fill="#FF5F15"/>
<path d="M100.762 111.668C100.142 111.668 99.5217 111.68 98.9076 111.668C98.0665 111.647 97.6025 111.196 97.5914 110.364C97.5757 109.115 97.5757 107.864 97.5914 106.611C97.6025 105.83 98.0243 105.363 98.8047 105.342C100.122 105.306 101.44 105.306 102.76 105.342C103.514 105.363 103.928 105.807 103.944 106.576C103.97 107.867 103.973 109.16 103.944 110.451C103.926 111.228 103.467 111.633 102.68 111.675C102.639 111.675 102.598 111.675 102.556 111.675L100.762 111.668ZM102.046 109.789V107.225H99.482V109.789H102.046Z" fill="#FF5F15"/>
<path d="M113.658 108.524C113.658 109.119 113.665 109.714 113.658 110.309C113.644 111.187 113.203 111.652 112.333 111.666C111.097 111.684 109.861 111.684 108.624 111.666C107.766 111.655 107.322 111.223 107.309 110.374C107.29 109.124 107.29 107.874 107.309 106.623C107.321 105.789 107.728 105.355 108.559 105.334C109.835 105.304 111.113 105.304 112.391 105.334C113.232 105.355 113.644 105.828 113.658 106.682C113.665 107.294 113.658 107.91 113.658 108.524ZM111.782 107.219H109.217V109.773H111.782V107.219Z" fill="#FF5F15"/>
</g>
<defs>
<clipPath id="clip0_50_133">
<rect width="185" height="182" fill="white"/>
</clipPath>
<clipPath id="clip1_50_133">
<rect width="55" height="63" fill="white" transform="translate(65 61)"/>
</clipPath>
</defs>
</svg>
