<svg width="65" height="56" viewBox="0 0 65 56" fill="none" xmlns="http://www.w3.org/2000/svg">
<g clip-path="url(#clip0_19_240)">
<path d="M65 44.9079C64.983 44.9247 64.9661 44.9416 64.9661 44.9585C63.9656 48.3131 62.2867 49.5437 58.7255 49.5437C55.6561 49.5437 52.5867 49.5437 49.5173 49.5437C49.2799 49.5437 49.0595 49.5437 48.7542 49.5437C48.7542 50.3022 48.7542 51.0102 48.7542 51.7182C48.7542 52.6454 48.7373 53.5726 48.7542 54.4997C48.7712 55.1066 48.7034 55.646 48.059 55.9157C47.4315 56.1686 47.0245 55.8146 46.6175 55.41C45.5492 54.3311 44.4808 53.2691 43.2259 52.0048C42.9037 52.4094 42.6494 52.7971 42.3441 53.1174C41.5301 53.9603 40.6822 54.7863 39.8343 55.6123C39.4952 55.9494 39.1051 56.1012 38.6303 55.9157C38.1385 55.7134 37.935 55.3426 37.935 54.82C37.935 53.1006 37.935 51.3811 37.935 49.5774C37.6298 49.5605 37.3585 49.5437 37.1041 49.5437C26.6749 49.5437 16.2458 49.5437 5.81659 49.5437C3.01852 49.5437 0.898774 48.0602 0.237412 45.5822C0.101748 45.0596 0.033916 44.5033 0.033916 43.9639C0 31.1692 0 18.3745 0 5.56291C0 2.36002 2.3402 0 5.56222 0C23.5207 0 41.4793 0 59.4378 0C62.168 0 64.2539 1.66887 64.8813 4.29862C64.9152 4.41662 64.9661 4.53462 65 4.65262C65 18.071 65 31.4895 65 44.9079ZM37.9181 47.4028C37.9181 47.0488 37.9181 46.8128 37.9181 46.5599C37.9181 41.1824 37.935 35.7881 37.9011 30.4106C37.9011 29.534 37.5789 28.6574 37.3415 27.8146C37.2906 27.6291 36.9345 27.4606 36.6971 27.4269C34.8826 27.1066 33.916 25.7074 34.3569 23.9374C34.4756 23.4822 34.3569 23.1957 33.9499 22.9597C32.3898 22.0325 32.0506 20.3299 33.1359 18.8633C33.4242 18.4756 33.4073 18.189 33.119 17.8013C32.0337 16.3347 32.3728 14.6659 33.9499 13.705C34.3739 13.4521 34.4586 13.1656 34.3399 12.7104C33.899 10.9741 34.8996 9.50753 36.7141 9.25467C37.1719 9.18724 37.3754 8.98495 37.4433 8.54666C37.7146 6.74293 39.1391 5.7652 40.9196 6.18664C41.4114 6.30464 41.6997 6.18664 41.9541 5.74834C42.8529 4.2649 44.5995 3.89404 45.9901 4.93919C46.414 5.25948 46.7362 5.27634 47.1602 4.95605C48.5507 3.92775 50.2974 4.2649 51.1962 5.74834C51.4845 6.22035 51.7897 6.32149 52.2985 6.18664C53.9773 5.7652 55.4866 6.7935 55.707 8.47923C55.7749 8.98495 55.9614 9.20409 56.4871 9.27152C58.2338 9.52438 59.2343 10.991 58.8103 12.7104C58.6916 13.1993 58.7934 13.4859 59.2512 13.7387C60.7775 14.649 61.1166 16.3516 60.0483 17.8013C59.743 18.2228 59.76 18.5093 60.0652 18.9139C61.1336 20.3299 60.7775 22.0662 59.2343 22.9597C58.8103 23.2125 58.7086 23.4822 58.8103 23.9374C59.2343 25.7243 58.2846 27.1234 56.4871 27.4269C56.2666 27.4606 55.9275 27.5954 55.8596 27.764C55.6053 28.5057 55.2831 29.2812 55.2661 30.0397C55.2152 34.6249 55.2322 39.2101 55.2492 43.7953C55.2492 44.3685 55.1983 44.9079 54.5878 45.1608C53.9943 45.4136 53.5534 45.1102 53.1294 44.6887C52.061 43.593 50.9588 42.5142 49.8056 41.3679C49.4326 41.823 48.8221 42.2107 48.8051 42.649C48.6864 44.2167 48.7542 45.7845 48.7542 47.4365C49.0425 47.4365 49.263 47.4365 49.4834 47.4365C52.7055 47.4365 55.9105 47.4365 59.1325 47.4365C61.5575 47.4365 62.8294 46.1385 62.8294 43.7279C62.8294 31.1355 62.8294 18.543 62.8294 5.93378C62.8294 3.47261 61.5575 2.19145 59.0986 2.19145C41.3775 2.19145 23.6394 2.19145 5.91834 2.19145C3.44247 2.19145 2.17062 3.45575 2.17062 5.91692C2.17062 18.5093 2.17062 31.1017 2.17062 43.711C2.17062 46.1722 3.44247 47.4365 5.91834 47.4365C16.3306 47.4365 26.7258 47.4365 37.138 47.4365C37.3585 47.4028 37.5959 47.4028 37.9181 47.4028ZM52.9259 28.4214C53.3499 28.4214 53.5194 28.2023 53.5873 27.7977C53.8416 26.2806 54.5708 25.5388 56.0801 25.2691C56.6567 25.168 56.8432 24.9151 56.7075 24.3588C56.3684 22.8754 56.7584 21.9314 58.0811 21.1054C58.539 20.8188 58.6068 20.5154 58.2846 20.0771C57.3689 18.7959 57.3859 17.8013 58.2677 16.5539C58.6238 16.0482 58.5729 15.8122 58.0472 15.4919C56.7923 14.6996 56.3684 13.705 56.6906 12.2721C56.8262 11.6484 56.6906 11.4461 56.0292 11.345C54.6726 11.1427 53.7908 10.283 53.5703 8.91752C53.4516 8.22637 53.299 8.12523 52.5868 8.2938C51.264 8.59723 50.1618 8.14208 49.4326 6.99579C49.0595 6.38892 48.856 6.35521 48.2794 6.75978C47.1432 7.55208 45.9731 7.56894 44.8709 6.77664C44.2434 6.33835 44.0738 6.37207 43.6668 7.01264C42.9716 8.12523 41.8523 8.59723 40.5635 8.31066C39.8004 8.14208 39.6817 8.20951 39.546 8.95123C39.2917 10.3335 38.4607 11.1427 37.0702 11.3618C36.4427 11.463 36.3071 11.6653 36.4597 12.3227C36.7649 13.6713 36.324 14.7502 35.1709 15.4582C34.5265 15.8627 34.4926 16.0313 34.9335 16.6382C35.7135 17.717 35.7135 18.8971 34.9504 19.9759C34.4926 20.6334 34.5095 20.7851 35.2048 21.2065C36.2901 21.8808 36.7649 23.0102 36.4767 24.2408C36.2901 25.0331 36.3749 25.1511 37.1719 25.3028C38.4947 25.5557 39.2917 26.348 39.546 27.6629C39.6817 28.4214 39.8343 28.5226 40.5635 28.354C41.9032 28.0506 42.9716 28.4889 43.7008 29.6689C44.0738 30.2589 44.2773 30.3095 44.8539 29.888C45.9731 29.0957 47.1602 29.0789 48.2625 29.8712C48.8729 30.3095 49.0595 30.2757 49.4495 29.6183C50.1448 28.5057 51.2471 28.0337 52.5528 28.3372C52.6885 28.3709 52.8072 28.4046 52.9259 28.4214ZM40.1226 52.3083C40.9705 51.4654 41.6997 50.7237 42.4289 49.9988C43.0564 49.3751 43.599 49.3751 44.2434 49.9988C44.8709 50.6057 45.4644 51.2125 46.0918 51.8194C46.2275 51.9543 46.3632 52.0723 46.5327 52.224C46.5327 49.6617 46.5327 47.2005 46.5327 44.6719C46.0579 45.1439 45.6001 45.363 45.0404 45.1102C44.4639 44.8573 44.413 44.3347 44.43 43.7785C44.4469 40.1878 44.43 36.5972 44.43 33.0066C44.43 32.7875 44.43 32.5515 44.43 32.3492C43.0224 32.1638 42.6663 31.9109 41.8523 30.7646C41.7167 30.5792 41.4114 30.4443 41.191 30.4275C40.8518 30.4275 40.4957 30.5623 40.1396 30.6297C40.1226 37.8278 40.1226 44.9753 40.1226 52.3083ZM46.6175 41.5196C47.3976 40.7441 48.0929 40.0361 48.7882 39.345C49.5852 38.5695 50.077 38.5527 50.874 39.3618C51.5693 40.053 52.2306 40.7779 52.909 41.4859C52.9598 41.4521 52.9937 41.4016 53.0446 41.3679C53.0446 37.7941 53.0446 34.2035 53.0446 30.6466C52.1458 30.3095 51.5184 30.3263 50.9249 31.2703C50.1787 32.4672 48.4999 32.6189 47.3128 31.8266C47.1093 31.6918 46.9058 31.5569 46.6345 31.3715C46.6175 34.7766 46.6175 38.0807 46.6175 41.5196Z" fill="white"/>
<path d="M6.49491 24.7803C6.49491 21.3076 6.49491 17.835 6.49491 14.3624C6.49491 10.9067 8.78424 8.61409 12.2606 8.61409C18.5012 8.59723 24.7417 8.61409 30.9823 8.61409C31.1858 8.61409 31.4062 8.61409 31.6097 8.6478C32.1524 8.74895 32.5085 9.18724 32.4915 9.70982C32.4746 10.2324 32.1015 10.6538 31.5419 10.7213C31.2875 10.755 31.0331 10.755 30.7788 10.755C24.6569 10.755 18.552 10.755 12.4302 10.755C9.92043 10.7718 8.64858 12.0193 8.64858 14.5142C8.64858 21.3751 8.64858 28.2191 8.64858 35.0801C8.64858 37.4738 9.92043 38.755 12.3115 38.755C18.8403 38.755 25.3861 38.755 31.9149 38.755C32.1863 38.755 32.4746 38.755 32.7289 38.8224C33.2716 38.9404 33.5938 39.4124 33.526 39.935C33.4581 40.4744 33.1529 40.8116 32.5933 40.879C32.4237 40.8958 32.2541 40.8959 32.0845 40.8959C25.437 40.8959 18.8064 40.8959 12.1589 40.8959C9.39473 40.8959 7.29194 39.345 6.66449 36.8501C6.52883 36.3107 6.47795 35.7207 6.47795 35.1644C6.47795 31.7086 6.49491 28.236 6.49491 24.7803Z" fill="white"/>
<path d="M21.723 34.8946C20.112 35.9904 18.9419 35.7712 16.9069 33.9506C16.0929 35.1306 14.9567 35.9061 13.651 36.4287C13.3627 36.5467 12.9726 36.6647 12.7522 36.5467C12.413 36.3781 12.0739 36.0409 11.9552 35.6869C11.7856 35.2149 12.0908 34.8103 12.5487 34.5575C13.0744 34.2878 13.6001 34.0349 14.1088 33.7315C14.9737 33.192 15.4316 32.3829 15.4485 31.3715C15.4655 30.7309 15.7198 30.3263 16.3473 30.1746C16.873 30.0566 17.3478 30.3769 17.6022 31.0006C17.9753 31.9277 18.5688 32.6695 19.4167 33.192C20.0102 33.546 20.2476 33.4449 20.3494 32.7706C20.4342 32.2312 20.6885 31.8603 21.2312 31.7592C21.7738 31.658 22.113 31.9615 22.4352 32.366C22.7235 32.7369 23.1474 33.1246 23.5714 33.2426C25.352 33.7652 27.1665 34.2035 29.0488 34.1529C29.795 34.1361 30.2868 34.5912 30.2868 35.2149C30.2868 35.8386 29.795 36.2769 29.0658 36.2938C26.573 36.3612 24.1649 35.8049 21.723 34.8946Z" fill="white"/>
<path d="M20.57 23.7014C23.0459 23.7014 25.5218 23.7014 27.9807 23.7014C28.7608 23.7014 29.2017 24.0891 29.2186 24.7465C29.2356 25.3871 28.7947 25.8254 28.0994 25.8423C27.3532 25.8591 26.624 25.8423 25.8779 25.8423C21.6893 25.8423 17.5176 25.8423 13.329 25.8423C13.0237 25.8423 12.6846 25.7917 12.4302 25.6568C11.9723 25.404 11.8197 24.9488 11.9723 24.46C12.1419 23.9374 12.532 23.7014 13.0916 23.7014C14.8213 23.7014 16.551 23.7014 18.2977 23.7014C19.0438 23.7014 19.8069 23.7014 20.57 23.7014Z" fill="white"/>
<path d="M20.5699 19.4028C22.944 19.4028 25.3012 19.4028 27.6753 19.4028C27.8788 19.4028 28.0993 19.3859 28.3028 19.4196C28.8285 19.4871 29.1507 19.7905 29.2185 20.3131C29.2863 20.8525 29.0659 21.2571 28.5402 21.4594C28.3367 21.5437 28.0823 21.5605 27.8618 21.5605C22.9949 21.5605 18.1449 21.5605 13.278 21.5605C13.1762 21.5605 13.0575 21.5605 12.9558 21.5605C12.3114 21.4762 11.8874 21.0211 11.9213 20.4142C11.9552 19.8411 12.3622 19.4196 13.0066 19.4196C14.3124 19.4028 15.6351 19.4196 16.9409 19.4028C18.1449 19.4028 19.3489 19.4028 20.5699 19.4028Z" fill="white"/>
<path d="M20.587 15.0873C23.012 15.0873 25.454 15.0704 27.8789 15.1041C28.252 15.1041 28.6929 15.239 28.9643 15.475C29.5239 15.9807 29.2525 16.9079 28.5234 17.1439C28.269 17.2282 27.9807 17.2282 27.7094 17.2282C22.9611 17.2282 18.1959 17.2282 13.4477 17.2282C13.329 17.2282 13.1933 17.2282 13.0746 17.2282C12.3624 17.1776 11.9215 16.7393 11.9384 16.1324C11.9554 15.5087 12.3793 15.0873 13.1085 15.0873C15.6014 15.0873 18.0942 15.0873 20.587 15.0873Z" fill="white"/>
<path d="M46.5836 26.9211C41.7845 26.9211 37.9181 23.0608 37.935 18.2902C37.935 13.5196 41.8184 9.69295 46.6175 9.7098C51.4166 9.72666 55.2492 13.587 55.2322 18.3745C55.2152 23.1114 51.3488 26.9211 46.5836 26.9211ZM46.6006 24.7634C50.1957 24.7465 53.0785 21.8639 53.0616 18.2902C53.0446 14.7333 50.1278 11.8507 46.5497 11.8507C42.9716 11.8675 40.0717 14.767 40.0887 18.3407C40.1057 21.9145 43.0055 24.7802 46.6006 24.7634Z" fill="white"/>
</g>
<defs>
<clipPath id="clip0_19_240">
<rect width="65" height="56" fill="white"/>
</clipPath>
</defs>
</svg>
