<svg width="52" height="54" viewBox="0 0 52 54" fill="none" xmlns="http://www.w3.org/2000/svg">
<g clip-path="url(#clip0_20_261)">
<path d="M45.1948 4.98444e-06C45.7686 0.237949 46.0221 0.674179 45.9821 1.29548C45.9554 1.73171 45.9821 2.18116 45.9821 2.61739C45.9821 3.5956 45.7953 3.82032 44.8345 4.05827C44.8345 15.0698 44.8345 26.0813 44.8345 37.1985C45.5417 36.7359 46.1689 36.2996 46.8227 35.8899C48.1838 35.0174 49.6382 35.057 50.7858 35.9692C52.2669 37.1457 52.4671 39.3268 51.106 40.6355C49.4514 42.2218 47.7034 43.7288 45.9821 45.2622C44.3942 46.6766 42.7929 48.0646 41.2317 49.5055C39.7773 50.8539 38.0693 51.5677 36.1078 51.8321C31.2507 52.493 26.407 53.1936 21.5633 53.9075C20.309 54.0925 19.1214 54.0132 17.9071 53.5506C14.7714 52.3344 11.609 51.1843 8.45986 49.9946C8.29974 49.9285 8.12627 49.8757 7.96615 49.8228C7.92612 49.8624 7.89943 49.8889 7.88609 49.9153C7.52581 51.7924 6.59176 52.5591 4.65694 52.5459C3.96307 52.5459 3.2692 52.5856 2.57534 52.5063C1.08085 52.3608 0.133459 51.3694 0.0267102 49.8889C-0.0133206 49.3998 2.29742e-05 48.8974 0.0267102 48.4083C0.0400538 47.8928 0.346957 47.5623 0.787295 47.5491C1.24098 47.5359 1.57457 47.8663 1.58791 48.4216C1.60125 48.8842 1.57457 49.3337 1.60125 49.7963C1.62794 50.5234 2.08162 50.9728 2.81552 50.9993C3.54942 51.0257 4.26997 51.0125 5.00387 50.9993C5.85786 50.9861 6.31154 50.5366 6.31154 49.6774C6.32489 48.2233 6.31154 46.756 6.31154 45.3018C6.31154 41.1643 6.31154 37.0267 6.31154 32.9023C6.31154 31.6862 5.91124 31.2896 4.69697 31.2896C4.12319 31.2896 3.56276 31.2764 2.98899 31.2896C2.04159 31.316 1.60125 31.7523 1.58791 32.704C1.58791 36.1542 1.58791 39.6044 1.58791 43.0546C1.58791 43.8874 1.34773 44.2575 0.813982 44.2575C0.280239 44.2575 0.0133666 43.8874 0.0133666 43.0678C0.0133666 39.6705 0.0533974 36.2732 2.29744e-05 32.8759C-0.0266642 31.0649 1.13423 29.6108 3.1758 29.7298C3.81629 29.7694 4.45678 29.7165 5.09728 29.743C6.69851 29.7958 7.766 30.8269 7.88609 32.4264C7.89943 32.5454 7.89943 32.6644 7.91278 32.8098C8.03287 32.823 8.13962 32.8362 8.24637 32.8362C8.84683 32.8362 9.44729 32.8362 10.1278 32.8362C10.1278 32.6115 10.1278 32.4132 10.1278 32.2017C10.1278 26.729 10.1278 21.2563 10.1278 15.7836C10.1278 14.2502 10.4481 13.9329 11.9959 13.9197C12.1427 13.9197 12.2761 13.9197 12.4896 13.9197C12.4896 13.3777 12.4896 12.849 12.4896 12.3334C12.4896 11.2759 12.9433 10.8132 14.0108 10.8132C15.7722 10.8 17.5335 10.8 19.2815 10.8132C20.3624 10.8132 20.8027 11.2627 20.8027 12.3202C20.8027 12.8225 20.8027 13.3381 20.8027 13.9197C21.0963 13.9197 21.3498 13.9197 21.6033 13.9197C21.8435 13.9197 22.097 13.9197 22.3639 13.9197C22.3639 10.6017 22.3639 7.3366 22.3639 4.03183C22.2171 4.01861 22.0703 4.00539 21.9236 3.97895C21.3631 3.88642 21.0295 3.55594 21.0028 2.98752C20.9762 2.32657 20.9895 1.65239 21.0028 0.978218C21.0028 0.475892 21.3498 0.198291 21.7501 -0.0132141C26.3003 -0.0132141 30.8504 -0.0132141 35.3872 -0.0132141C35.6941 0.264387 35.9877 0.541988 35.8142 1.01788C35.6274 1.50698 35.2004 1.54664 34.7601 1.54664C34.64 1.54664 34.5066 1.54664 34.3865 1.54664C30.6636 1.54664 26.9274 1.54664 23.2045 1.54664C23.0044 1.54664 22.7909 1.54664 22.564 1.54664C22.564 1.87712 22.564 2.12828 22.564 2.40588C29.863 2.40588 37.1219 2.40588 44.4075 2.40588C44.4075 2.11506 44.4075 1.85068 44.4075 1.54664C44.1807 1.54664 43.9939 1.54664 43.8071 1.54664C42.6328 1.54664 41.4586 1.54664 40.2977 1.54664C39.844 1.54664 39.4304 1.48054 39.2702 0.991437C39.1235 0.51555 39.4037 0.237949 39.7773 4.98444e-06C41.5653 4.98444e-06 43.3801 4.98444e-06 45.1948 4.98444e-06ZM7.88609 34.4357C7.88609 34.6605 7.88609 34.8588 7.88609 35.0438C7.88609 39.2078 7.89943 43.3851 7.87275 47.5491C7.87275 47.9853 7.99284 48.1836 8.40649 48.3422C11.8625 49.6113 15.2918 50.9464 18.7611 52.189C19.4283 52.4269 20.2423 52.493 20.9495 52.4005C25.8199 51.7528 30.677 50.9993 35.5474 50.3515C37.4288 50.1004 39.03 49.4394 40.4311 48.144C43.0198 45.7381 45.7019 43.4247 48.3305 41.0717C48.8776 40.5959 49.4247 40.12 49.9451 39.6176C50.4655 39.1021 50.5589 38.2825 50.212 37.6612C49.865 37.0399 49.1845 36.6962 48.464 36.8416C48.1304 36.9077 47.7968 37.0928 47.5166 37.2779C44.2474 39.4326 40.9916 41.5873 37.7357 43.7552C37.3488 44.0196 36.9618 44.1253 36.4948 44.0725C34.8668 43.9271 33.2389 43.8345 31.611 43.6759C27.2076 43.2661 22.8176 42.8299 18.4142 42.4069C17.8271 42.354 17.5202 42.0235 17.5735 41.5344C17.6269 41.0717 17.9738 40.8206 18.5476 40.8735C22.2171 41.2304 25.8999 41.5873 29.5694 41.931C30.6903 42.0367 31.8245 42.1425 32.9454 42.2482C32.9854 40.6355 31.7978 39.3797 30.0231 39.155C28.075 38.9038 26.1134 38.6659 24.1519 38.494C21.1763 38.2429 18.3742 37.5158 15.7588 36.022C13.357 34.7001 10.7149 34.2771 7.88609 34.4357ZM31.0906 37.8066C31.0906 36.6169 31.0773 35.4801 31.0906 34.3564C31.1039 33.5765 31.4509 33.246 32.2382 33.2328C33.1055 33.2196 33.9728 33.2196 34.8535 33.2328C35.7876 33.2328 36.1211 33.5765 36.1211 34.5283C36.1211 35.4933 36.1211 36.4583 36.1211 37.4365C36.1211 38.5337 35.8009 38.8377 34.68 38.8377C34.1463 38.8377 33.6125 38.8377 32.9454 38.8377C34.0662 39.8952 34.5066 41.085 34.5866 42.4333C35.1204 42.473 35.6007 42.4862 36.0678 42.5391C36.5348 42.5919 36.9084 42.473 37.3087 42.2086C39.1235 40.9792 40.9515 39.763 42.7929 38.5733C43.1265 38.3618 43.26 38.1371 43.26 37.7273C43.2466 26.7026 43.2466 15.6646 43.2466 4.63991C43.2466 4.45484 43.2466 4.26977 43.2466 4.07149C36.7883 4.07149 30.3834 4.07149 23.9785 4.07149C23.9785 15.0566 23.9785 25.9887 23.9785 36.9606C24.2987 37.0003 24.6056 37.0399 24.9792 37.0796C24.9792 36.1542 24.9659 35.295 24.9792 34.4357C24.9926 33.5897 25.3395 33.246 26.1802 33.246C27.0742 33.2328 27.9549 33.2328 28.8489 33.246C29.6495 33.2593 30.0098 33.6162 30.0231 34.4093C30.0365 34.9381 30.0231 35.4668 30.0231 35.9956C30.0231 36.5508 30.0231 37.106 30.0231 37.648C30.4234 37.7009 30.717 37.7405 31.0906 37.8066ZM22.3772 22.0362C22.0837 22.0362 21.8301 22.0362 21.59 22.0362C19.028 22.0362 16.4794 22.0362 13.9174 22.0362C13.01 22.0362 12.6898 21.719 12.6898 20.8333C12.6898 20.3045 12.6898 19.7758 12.6898 19.247C12.6898 18.1366 12.9567 17.8722 14.0642 17.8722C16.6261 17.8722 19.1748 17.8722 21.7367 17.8722C21.9369 17.8722 22.1504 17.8722 22.3639 17.8722C22.3639 17.0394 22.3639 16.2727 22.3639 15.5192C18.7878 15.5192 15.2518 15.5192 11.6623 15.5192C11.6623 15.7704 11.6623 15.9819 11.6623 16.1934C11.6623 21.5207 11.6623 26.848 11.6623 32.1753C11.6623 33.061 11.6623 33.061 12.5297 33.2196C12.5697 33.2328 12.6231 33.2064 12.7031 33.1932C12.7031 32.704 12.7031 32.2414 12.7031 31.7655C12.7031 30.8005 12.9967 30.5097 13.9708 30.5097C16.5861 30.5097 19.1881 30.5097 21.8035 30.5097C21.9903 30.5097 22.1771 30.5097 22.3906 30.5097C22.3906 29.7694 22.3906 29.082 22.3906 28.3417C22.1637 28.3417 21.9502 28.3417 21.7501 28.3417C19.1347 28.3417 16.5327 28.3417 13.9174 28.3417C13.01 28.3417 12.7165 28.0377 12.7031 27.1256C12.7031 26.6365 12.7031 26.1342 12.7031 25.6451C12.7031 24.4157 12.93 24.191 14.1576 24.191C16.7196 24.191 19.2682 24.191 21.8302 24.191C22.017 24.191 22.2038 24.191 22.4039 24.191C22.3772 23.4375 22.3772 22.7765 22.3772 22.0362ZM14.2643 20.4367C16.9998 20.4367 19.6818 20.4367 22.3639 20.4367C22.3639 20.093 22.3639 19.7758 22.3639 19.4585C19.6551 19.4585 16.9597 19.4585 14.2643 19.4585C14.2643 19.8022 14.2643 20.1063 14.2643 20.4367ZM14.291 25.764C14.291 26.1342 14.291 26.4514 14.291 26.7687C17.0131 26.7687 19.6818 26.7687 22.3372 26.7687C22.3372 26.4118 22.3372 26.0945 22.3372 25.764C19.6418 25.764 16.9864 25.764 14.291 25.764ZM14.2777 33.0742C16.9864 33.0742 19.6818 33.0742 22.3505 33.0742C22.3505 32.7173 22.3505 32.4132 22.3505 32.096C19.6418 32.096 16.9731 32.096 14.2777 32.096C14.2777 32.4397 14.2777 32.7437 14.2777 33.0742ZM19.2148 12.3863C17.4668 12.3863 15.7722 12.3863 14.0775 12.3863C14.0775 12.9018 14.0775 13.3909 14.0775 13.8933C15.7988 13.8933 17.4935 13.8933 19.2148 13.8933C19.2148 13.3909 19.2148 12.9151 19.2148 12.3863ZM16.5061 34.6737C18.3875 35.8238 20.2823 36.4979 22.3505 36.7623C22.3505 36.0353 22.3505 35.3743 22.3505 34.6737C20.4291 34.6737 18.5476 34.6737 16.5061 34.6737ZM28.4486 34.7927C27.7947 34.7927 27.1943 34.7927 26.5805 34.7927C26.5805 35.6255 26.5805 36.4186 26.5805 37.225C27.221 37.225 27.8214 37.225 28.4486 37.225C28.4486 36.4186 28.4486 35.6255 28.4486 34.7927ZM32.6651 34.7927C32.6651 35.6387 32.6651 36.4451 32.6651 37.2514C33.3056 37.2514 33.8928 37.2514 34.5199 37.2514C34.5199 36.4318 34.5199 35.6255 34.5199 34.7927C33.9061 34.7927 33.3056 34.7927 32.6651 34.7927Z" fill="white"/>
<path d="M30.0366 26.9802C30.0366 27.5089 30.0499 28.0377 30.0366 28.5665C30.0232 29.3993 29.6496 29.7562 28.8356 29.7694C27.9416 29.7826 27.0609 29.7826 26.1669 29.7694C25.393 29.7562 25.006 29.4125 24.9927 28.6458C24.966 27.5222 24.966 26.3985 24.9927 25.2749C25.006 24.5346 25.393 24.1909 26.1269 24.1777C27.0342 24.1645 27.9416 24.1645 28.849 24.1777C29.6362 24.1909 30.0099 24.5479 30.0366 25.3542C30.0499 25.8962 30.0366 26.4382 30.0366 26.9802ZM28.4353 25.764C27.7948 25.764 27.1944 25.764 26.5806 25.764C26.5806 26.5968 26.5806 27.39 26.5806 28.1831C27.2211 28.1831 27.8082 28.1831 28.4353 28.1831C28.4353 27.3768 28.4353 26.5968 28.4353 25.764Z" fill="white"/>
<path d="M24.9927 17.9119C24.9927 17.3699 24.9794 16.8147 24.9927 16.2727C25.0194 15.4928 25.3664 15.1359 26.1403 15.1226C27.061 15.0962 27.9817 15.0962 28.9158 15.1226C29.6497 15.1359 30.0233 15.5192 30.0366 16.2463C30.0633 17.3699 30.0633 18.4935 30.0366 19.6171C30.0233 20.3574 29.6497 20.7011 28.8891 20.7011C27.9817 20.7143 27.0743 20.7143 26.167 20.7011C25.353 20.6879 25.0194 20.3442 24.9927 19.5378C24.9794 19.0091 24.9927 18.4671 24.9927 17.9119ZM26.594 16.6825C26.594 17.5153 26.594 18.3349 26.594 19.1545C27.2345 19.1545 27.8216 19.1545 28.4221 19.1545C28.4221 18.3084 28.4221 17.5021 28.4221 16.6825C27.7949 16.6825 27.2078 16.6825 26.594 16.6825Z" fill="white"/>
<path d="M30.0365 8.9229C30.0365 9.45167 30.0498 9.98043 30.0365 10.5092C30.0231 11.3023 29.6495 11.6725 28.8622 11.6989C27.9549 11.7121 27.0475 11.7253 26.1401 11.6989C25.3662 11.6857 25.0059 11.3288 24.9926 10.5489C24.9792 9.43845 24.9659 8.32804 24.9926 7.23086C25.0059 6.45093 25.3662 6.12045 26.1535 6.10723C27.0608 6.09402 27.9682 6.09402 28.8756 6.10723C29.6495 6.12045 30.0098 6.46415 30.0365 7.24408C30.0498 7.78606 30.0365 8.35448 30.0365 8.9229ZM26.5671 10.0994C27.221 10.0994 27.8348 10.0994 28.4352 10.0994C28.4352 9.2666 28.4352 8.47345 28.4352 7.65387C27.7947 7.65387 27.1943 7.65387 26.5671 7.65387C26.5671 8.48667 26.5671 9.2666 26.5671 10.0994Z" fill="white"/>
<path d="M37.1887 26.967C37.1887 26.3853 37.1753 25.8037 37.1887 25.222C37.202 24.5743 37.5623 24.2042 38.2161 24.1777C39.2035 24.1513 40.2043 24.1513 41.1917 24.1777C41.8056 24.1909 42.1925 24.5743 42.1925 25.1824C42.2192 26.3589 42.2059 27.5354 42.1925 28.7119C42.1792 29.3596 41.8056 29.7297 41.1651 29.743C40.1776 29.7694 39.1769 29.7694 38.1894 29.743C37.5623 29.7297 37.202 29.3464 37.1887 28.7383C37.1753 28.1567 37.1887 27.5618 37.1887 26.967ZM40.618 28.1963C40.618 27.3503 40.618 26.5704 40.618 25.764C39.9908 25.764 39.3904 25.764 38.7766 25.764C38.7766 26.5836 38.7766 27.3767 38.7766 28.1963C39.3904 28.1963 39.9908 28.1963 40.618 28.1963Z" fill="white"/>
<path d="M31.0904 26.9537C31.0904 26.3853 31.0771 25.8301 31.0904 25.2617C31.1171 24.5479 31.464 24.1909 32.1846 24.1777C33.1186 24.1645 34.066 24.1645 35.0134 24.1777C35.7206 24.1909 36.1209 24.5611 36.1209 25.2485C36.1476 26.3853 36.1343 27.5354 36.1209 28.6722C36.1076 29.3728 35.7206 29.743 35.0268 29.7562C34.0927 29.7694 33.1453 29.7694 32.1979 29.7562C31.4774 29.743 31.1171 29.3861 31.0904 28.6854C31.0771 28.117 31.0904 27.5354 31.0904 26.9537ZM34.5197 28.1963C34.5197 27.3768 34.5197 26.5704 34.5197 25.764C33.8926 25.764 33.2921 25.764 32.6649 25.764C32.6649 26.5836 32.6649 27.39 32.6649 28.1963C33.3054 28.1963 33.8926 28.1963 34.5197 28.1963Z" fill="white"/>
<path d="M42.2059 8.8568C42.2059 9.43844 42.2193 10.0201 42.2059 10.6017C42.1926 11.2495 41.859 11.646 41.2051 11.6725C40.191 11.7121 39.1769 11.7121 38.1761 11.6725C37.5223 11.646 37.2021 11.2627 37.1887 10.6017C37.1754 9.46488 37.1754 8.31482 37.1887 7.17798C37.2021 6.49058 37.549 6.13367 38.2295 6.10723C39.2036 6.08079 40.1777 6.08079 41.1518 6.10723C41.8323 6.12045 42.1792 6.5038 42.1926 7.17798C42.2193 7.73318 42.2059 8.3016 42.2059 8.8568ZM38.7633 7.64064C38.7633 8.49989 38.7633 9.29303 38.7633 10.0994C39.4038 10.0994 40.0176 10.0994 40.6047 10.0994C40.6047 9.25337 40.6047 8.46023 40.6047 7.64064C39.9775 7.64064 39.3904 7.64064 38.7633 7.64064Z" fill="white"/>
<path d="M37.1886 17.9251C37.1886 17.3567 37.1753 16.8015 37.1886 16.2331C37.202 15.5457 37.5222 15.1623 38.2027 15.1359C39.1902 15.0962 40.191 15.0962 41.1784 15.1359C41.8589 15.1623 42.1925 15.5589 42.1925 16.2463C42.2058 17.3699 42.2058 18.4935 42.1925 19.6172C42.1792 20.331 41.8322 20.7011 41.1117 20.7143C40.1509 20.7276 39.1902 20.7276 38.2428 20.7143C37.5356 20.7011 37.1886 20.331 37.1753 19.6172C37.1753 19.0487 37.1886 18.4935 37.1886 17.9251ZM38.7899 16.6957C38.7899 17.555 38.7899 18.3613 38.7899 19.1677C39.417 19.1677 40.0041 19.1677 40.6046 19.1677C40.6046 18.3349 40.6046 17.5285 40.6046 16.6957C39.9775 16.6957 39.4037 16.6957 38.7899 16.6957Z" fill="white"/>
<path d="M37.1887 35.9692C37.1887 35.4272 37.1753 34.8852 37.1887 34.33C37.202 33.6162 37.5489 33.246 38.2562 33.2328C39.2169 33.2196 40.1776 33.2196 41.125 33.2328C41.8322 33.246 42.1925 33.6162 42.2059 34.33C42.2192 35.4536 42.2192 36.5773 42.2059 37.7009C42.1925 38.4015 41.8456 38.7981 41.1384 38.8113C40.1776 38.8377 39.2169 38.8377 38.2695 38.8113C37.5623 38.7848 37.2154 38.4147 37.202 37.7009C37.1753 37.1325 37.1887 36.5508 37.1887 35.9692ZM38.7632 37.2382C39.4037 37.2382 39.9908 37.2382 40.6046 37.2382C40.6046 36.4054 40.6046 35.6123 40.6046 34.7795C39.9775 34.7795 39.3904 34.7795 38.7632 34.7795C38.7632 35.599 38.7632 36.3922 38.7632 37.2382Z" fill="white"/>
<path d="M31.0906 17.9119C31.0906 17.3435 31.0773 16.7883 31.0906 16.2198C31.1173 15.5325 31.4375 15.1623 32.1314 15.1359C33.1055 15.0962 34.0796 15.0962 35.0537 15.1359C35.7475 15.1623 36.1078 15.5589 36.1212 16.2595C36.1345 17.3699 36.1345 18.4803 36.1212 19.5775C36.1078 20.3442 35.7475 20.7011 34.9603 20.7143C34.0529 20.7276 33.1455 20.7276 32.2382 20.7143C31.4242 20.7011 31.0906 20.3574 31.0773 19.5378C31.0773 18.9959 31.0906 18.4539 31.0906 17.9119ZM34.5199 19.1545C34.5199 18.3085 34.5199 17.5021 34.5199 16.6957C33.8794 16.6957 33.2923 16.6957 32.6652 16.6957C32.6652 17.5285 32.6652 18.3217 32.6652 19.1545C33.2923 19.1545 33.8794 19.1545 34.5199 19.1545Z" fill="white"/>
<path d="M31.0904 8.89646C31.0904 8.30161 31.0771 7.70675 31.0904 7.09867C31.1171 6.46415 31.4507 6.12046 32.0912 6.09402C33.0786 6.06758 34.0794 6.06758 35.0668 6.09402C35.7206 6.10724 36.0942 6.47737 36.1076 7.12511C36.1343 8.28839 36.1343 9.45167 36.1076 10.6017C36.0942 11.2495 35.7473 11.646 35.0935 11.6593C34.1061 11.6989 33.1053 11.6989 32.1179 11.6593C31.4373 11.6328 31.1037 11.2627 31.0904 10.5621C31.0771 10.0201 31.0904 9.46489 31.0904 8.89646ZM34.5197 10.1126C34.5197 9.2666 34.5197 8.47345 34.5197 7.65387C33.8792 7.65387 33.2788 7.65387 32.6649 7.65387C32.6649 8.48667 32.6649 9.27982 32.6649 10.1126C33.2921 10.1126 33.8792 10.1126 34.5197 10.1126Z" fill="white"/>
</g>
<defs>
<clipPath id="clip0_20_261">
<rect width="52" height="54" fill="white"/>
</clipPath>
</defs>
</svg>
