<svg xmlns="http://www.w3.org/2000/svg" xmlns:xlink="http://www.w3.org/1999/xlink" viewBox="0 0 180 150" xmlns:v="https://vecta.io/nano"><g fill="#e6e6e6"><path d="M30.9 64.1l.7 1.3 1.5.2-1.1 1 .2 1.4-1.3-.6-1.3.6.2-1.4-1-1 1.5-.2zm4.7 0l.7 1.3 1.4.2-1 1 .2 1.4-1.3-.6-1.3.6.2-1.4-1-1 1.5-.2z"/><use xlink:href="#B"/><use xlink:href="#B" x="4.7"/><path d="M49.7 64.1l.7 1.3 1.4.2-1 1L51 68l-1.3-.6-1.3.6.2-1.4-1-1 1.4-.2z"/></g><path d="M56.1 54.9H24.5c-2.2 0-3.9-1.8-3.9-3.9V16.5c0-2.2 1.8-3.9 3.9-3.9h31.6c2.2 0 3.9 1.8 3.9 3.9V51c.1 2.2-1.7 3.9-3.9 3.9z" fill="#a6b4bf"/><path d="M50.9 61.9H29.7c-1 0-1.9-.8-1.9-1.9h0c0-1 .8-1.9 1.9-1.9h21.1c1 0 1.9.8 1.9 1.9h0c0 1.1-.8 1.9-1.8 1.9z" fill="#d1d1d1"/><g fill="#e6e6e6"><use xlink:href="#C"/><use xlink:href="#C" x="4.7"/><use xlink:href="#C" x="9.4"/><use xlink:href="#C" x="14.1"/><use xlink:href="#C" x="18.8"/><path d="M104 54.9H72.3c-2.2 0-3.9-1.8-3.9-3.9V16.5c0-2.2 1.8-3.9 3.9-3.9H104c2.2 0 3.9 1.8 3.9 3.9V51c0 2.2-1.8 3.9-3.9 3.9z"/></g><path d="M98.7 61.9H77.6c-1 0-1.9-.8-1.9-1.9h0c0-1 .8-1.9 1.9-1.9h21.1c1 0 1.9.8 1.9 1.9h0c0 1.1-.9 1.9-1.9 1.9z" fill="#d1d1d1"/><g fill="#e6e6e6"><use xlink:href="#B" x="86.3" y="0.2"/><use xlink:href="#B" x="91" y="0.2"/><use xlink:href="#B" x="95.7" y="0.2"/><use xlink:href="#B" x="100.4" y="0.2"/><use xlink:href="#B" x="105.1" y="0.2"/><path d="M151.8 55.1h-31.6c-2.2 0-3.9-1.8-3.9-3.9V16.7c0-2.2 1.8-3.9 3.9-3.9h31.6c2.2 0 3.9 1.8 3.9 3.9v34.5c.1 2.2-1.7 3.9-3.9 3.9z"/></g><path d="M146.6 62.1h-21.1c-1 0-1.9-.8-1.9-1.9h0c0-1 .8-1.9 1.9-1.9h21.1c1 0 1.9.8 1.9 1.9h0c-.1 1.1-.9 1.9-1.9 1.9z" fill="#d1d1d1"/><path d="M58.6 149.5H21.1a.94.94 0 0 1-1-1V142c0-1.1.9-2 2-2h35.5c1.1 0 2 .9 2 2v6.5a.94.94 0 0 1-1 1zm47.9 0H68.9a.94.94 0 0 1-1-1V142c0-1.1.9-2 2-2h35.5c1.1 0 2 .9 2 2v6.5c.1.6-.4 1-.9 1zm47.8 0h-37.5a.94.94 0 0 1-1-1V142c0-1.1.9-2 2-2h35.5c1.1 0 2 .9 2 2v6.5a.94.94 0 0 1-1 1z" fill="#e6e6e6"/><path d="M152.5 134.1H23.8c-1.7 0-3-1.3-3-3V73.8a1.79 1.79 0 0 1 1.8-1.8h130c1.7 0 3 1.3 3 3v56.1c-.1 1.7-1.4 3-3.1 3z" fill="#fff"/><path d="M152.5 134.1H22.8c-1.1 0-2-.9-2-2V74c0-1.1.9-2 2-2h129.8c1.7 0 3 1.3 3 3v56.1c-.1 1.7-1.4 3-3.1 3z" fill="none" stroke="#a6b4bf" stroke-miterlimit="10"/><path d="M85.4 133.7H23c-1.1 0-2-.9-2-2V74.5c0-1.1.9-2 2-2h62.4v61.2z" fill="#a6b4bf"/><path d="M45.2 111.7h16l-4.4-9.5-5.3 7.1-3.7-2.7c.1 0-2.6 5.1-2.6 5.1zm5.9-5.1l6.1-8.1 7 15.1h-22l5-10 3.9 3zm-1.7-6.3a3.8 3.8 0 0 1 0-7.6 3.8 3.8 0 0 1 3.8 3.8c0 2.1-1.7 3.7-3.8 3.8zm0-1.9c1.1 0 1.9-.8 1.9-1.9s-.8-1.9-1.9-1.9-1.9.8-1.9 1.9.9 1.9 1.9 1.9z" fill="#fff"/><path d="M95.3 80.5h28.8c.3 0 .5.2.5.4v2.2c0 .2-.2.4-.5.4H95.3c-.3 0-.5-.2-.5-.4V81c0-.3.3-.5.5-.5z" fill="#3e585f"/><path d="M95.1 88.7h51.2c.2 0 .3.1.3.3v2c0 .1-.2.3-.3.3H95.1c-.2 0-.3-.1-.3-.3v-2.1c0-.1.1-.2.3-.2zm0 6.3h51.2c.2 0 .3.1.3.3v2.1c0 .1-.2.3-.3.3H95.1c-.2 0-.3-.1-.3-.3v-2.1c0-.2.1-.3.3-.3zm0 6.3h35.1c.2 0 .3.1.3.3v2.1c0 .1-.2.3-.3.3H95.1c-.2 0-.3-.1-.3-.3v-2.1c0-.2.1-.3.3-.3zm3.2 15.2h10.1a3.37 3.37 0 0 1 3.4 3.4h0a3.37 3.37 0 0 1-3.4 3.4H98.3a3.37 3.37 0 0 1-3.4-3.4h0a3.37 3.37 0 0 1 3.4-3.4z" fill="#83a2aa"/><path d="M100.2 119h6.4c.1 0 .3.1.3.3v1.3c0 .1-.1.3-.3.3h-6.4c-.1 0-.3-.1-.3-.3v-1.3c.1-.2.2-.3.3-.3z" fill="#fff"/><g fill="#83a2aa"><use xlink:href="#D"/><use xlink:href="#D" x="5.3"/><use xlink:href="#D" x="10.6"/><use xlink:href="#D" x="15.9"/><use xlink:href="#D" x="21.2"/></g><path d="M150.8 77.7l1.5-1.5c.2-.2.2-.4 0-.6l-.2-.2a.37.37 0 0 0-.6 0l-1.5 1.5-1.5-1.5a.37.37 0 0 0-.6 0l-.2.2c-.2.2-.2.4 0 .6l1.5 1.5-1.5 1.5c-.2.2-.2.4 0 .6l.2.2a.37.37 0 0 0 .6 0l1.5-1.5 1.5 1.5a.37.37 0 0 0 .6 0l.2-.2c.2-.2.2-.4 0-.6l-1.5-1.5z" fill="#3e585f"/><defs ><path id="B" d="M40.3 64.1l.7 1.3 1.4.2-1 1 .2 1.4-1.3-.6-1.3.6.2-1.4-1-1 1.4-.2z"/><path id="C" d="M78.8 64.1l.6 1.3 1.5.2-1.1 1 .3 1.4-1.3-.6-1.4.6.3-1.4-1.1-1 1.5-.2z"/><path id="D" d="M97.2 107.7l.8 1.5 1.6.2-1.2 1.1.3 1.6-1.5-.7-1.5.7.3-1.6-1.2-1.1 1.7-.2z"/></defs></svg>