<svg xmlns="http://www.w3.org/2000/svg" xmlns:xlink="http://www.w3.org/1999/xlink" viewBox="0 0 180 150" xmlns:v="https://vecta.io/nano"><g fill="#e6e6e6"><use xlink:href="#B"/><use xlink:href="#B" x="4.7"/><use xlink:href="#B" x="9.4"/><use xlink:href="#B" x="14.1"/><use xlink:href="#B" x="18.8"/><path d="M57 57.6H25.3c-2.2 0-3.9-1.8-3.9-3.9V19.2c0-2.2 1.8-3.9 3.9-3.9H57c2.2 0 3.9 1.8 3.9 3.9v34.5c0 2.1-1.7 3.9-3.9 3.9z"/></g><path d="M51.7 64.6H30.6c-1 0-1.9-.8-1.9-1.9h0c0-1 .8-1.9 1.9-1.9h21.1c1 0 1.9.8 1.9 1.9h0a1.97 1.97 0 0 1-1.9 1.9z" fill="#d1d1d1"/><g fill="#e6e6e6"><use xlink:href="#C"/><use xlink:href="#C" x="4.7"/><path d="M89 66.8l.7 1.3 1.4.2-1 .9.2 1.5L89 70l-1.3.7.2-1.5-1-.9 1.4-.2z"/><use xlink:href="#C" x="14.1"/><use xlink:href="#C" x="18.8"/><path d="M104.8 57.6H73.2c-2.2 0-3.9-1.8-3.9-3.9V19.2c0-2.2 1.8-3.9 3.9-3.9h31.6c2.2 0 3.9 1.8 3.9 3.9v34.5c.1 2.1-1.7 3.9-3.9 3.9z"/></g><path d="M99.6 64.6H78.4c-1 0-1.9-.8-1.9-1.9h0c0-1 .8-1.9 1.9-1.9h21.1c1 0 1.9.8 1.9 1.9h0c0 1-.8 1.9-1.8 1.9z" fill="#d1d1d1"/><g fill="#e6e6e6"><use xlink:href="#B" x="95.7" y="0.2"/><use xlink:href="#B" x="100.4" y="0.2"/><use xlink:href="#B" x="105.1" y="0.2"/><path d="M141.5 67l.7 1.3 1.5.2-1.1.9.3 1.5-1.4-.7-1.3.7.3-1.5-1.1-.9 1.5-.2zm4.7 0l.7 1.3 1.5.2-1.1.9.3 1.5-1.4-.7-1.3.7.3-1.5-1.1-.9 1.5-.2zm6.5-9.2H121c-2.2 0-3.9-1.8-3.9-3.9V19.4c0-2.2 1.8-3.9 3.9-3.9h31.6c2.2 0 3.9 1.8 3.9 3.9v34.5c.1 2.1-1.7 3.9-3.8 3.9z"/></g><path d="M147.4 64.8h-21.1c-1 0-1.9-.8-1.9-1.9h0c0-1 .8-1.9 1.9-1.9h21.1c1 0 1.9.8 1.9 1.9h0a1.97 1.97 0 0 1-1.9 1.9z" fill="#d1d1d1"/><g fill="#e6e6e6"><use xlink:href="#D"/><use xlink:href="#D" x="4.7"/><use xlink:href="#D" x="9.4"/><use xlink:href="#D" x="14.1"/><use xlink:href="#D" x="18.8"/><path d="M57 119.5H25.3c-2.2 0-3.9-1.8-3.9-3.9V81.1c0-2.2 1.8-3.9 3.9-3.9H57c2.2 0 3.9 1.8 3.9 3.9v34.5c0 2.1-1.7 3.9-3.9 3.9z"/></g><path d="M51.7 126.5H30.6c-1 0-1.9-.8-1.9-1.9h0c0-1 .8-1.9 1.9-1.9h21.1c1 0 1.9.8 1.9 1.9h0c0 1.1-.9 1.9-1.9 1.9z" fill="#d1d1d1"/><g fill="#e6e6e6"><use xlink:href="#E"/><use xlink:href="#E" x="4.7"/><use xlink:href="#E" x="9.4"/><use xlink:href="#E" x="14.1"/><use xlink:href="#E" x="18.8"/><path d="M104.8 119.5H73.2c-2.2 0-3.9-1.8-3.9-3.9V81.1c0-2.2 1.8-3.9 3.9-3.9h31.6c2.2 0 3.9 1.8 3.9 3.9v34.5c.1 2.1-1.7 3.9-3.9 3.9z"/></g><path d="M99.6 126.5H78.4c-1 0-1.9-.8-1.9-1.9h0c0-1 .8-1.9 1.9-1.9h21.1c1 0 1.9.8 1.9 1.9h0c0 1.1-.8 1.9-1.8 1.9z" fill="#d1d1d1"/><g fill="#e6e6e6"><use xlink:href="#D" x="95.7" y="0.2"/><use xlink:href="#D" x="100.4" y="0.2"/><use xlink:href="#D" x="105.1" y="0.2"/><path d="M141.5 128.9l.7 1.3 1.5.2-1.1 1 .3 1.4-1.4-.7-1.3.7.3-1.4-1.1-1 1.5-.2zm4.7 0l.7 1.3 1.5.2-1.1 1 .3 1.4-1.4-.7-1.3.7.3-1.4-1.1-1 1.5-.2z"/></g><path d="M152.7 119.7H121c-2.2 0-3.9-1.8-3.9-3.9V81.3c0-2.2 1.8-3.9 3.9-3.9h31.6c2.2 0 3.9 1.8 3.9 3.9v34.5c.1 2.1-1.7 3.9-3.8 3.9z" fill="#a6b4bf"/><path d="M147.4 126.7h-21.1c-1 0-1.9-.8-1.9-1.9h0c0-1 .8-1.9 1.9-1.9h21.1c1 0 1.9.8 1.9 1.9h0c0 1.1-.9 1.9-1.9 1.9z" fill="#d1d1d1"/><path d="M37.2 42.5h105.3c1.8 0 3.2 1.4 3.2 3.2v55.1c0 1.8-1.4 3.2-3.2 3.2H36.9a3.37 3.37 0 0 1-3.4-3.4V46.2a3.76 3.76 0 0 1 3.7-3.7z" fill="#fff"/><g fill="#a6b4bf"><path d="M142 104.5H36.5c-2.1 0-3.9-1.7-3.9-3.9V46.2a4.23 4.23 0 0 1 4.2-4.2H142a3.76 3.76 0 0 1 3.7 3.7v55.1c0 2.1-1.6 3.7-3.7 3.7zM36.8 43c-1.8 0-3.2 1.5-3.2 3.2v54.4c0 1.6 1.3 2.9 2.9 2.9H142a2.69 2.69 0 0 0 2.7-2.7V45.7A2.69 2.69 0 0 0 142 43H36.8z"/><path d="M36.7 43.1h48.4v60.4H36.7c-1.8 0-3.2-1.4-3.2-3.2V46.2c0-1.7 1.4-3.1 3.2-3.1z"/></g><path d="M50.9 81.8h16l-4.4-9.5-5.3 7.1-3.7-2.7-2.6 5.1zm5.9-5.1l6.1-8.1 7 15.1h-22l5-10 3.9 3zM55 70.4a3.8 3.8 0 0 1 0-7.6 3.8 3.8 0 0 1 3.8 3.8c0 2.1-1.6 3.8-3.8 3.8h0zm0-1.9c1.1 0 1.9-.8 1.9-1.9s-.8-1.9-1.9-1.9-1.9.8-1.9 1.9c.1 1.1 1 1.9 1.9 1.9z" fill="#fff"/><path d="M93.9 47.7h24c.2 0 .4.2.4.4v2.2c0 .2-.2.4-.4.4h-24c-.2 0-.4-.2-.4-.4v-2.2c-.1-.2.2-.4.4-.4z" fill="#3e585f"/><path d="M93.7 55.9h42.5c.1 0 .3.1.3.3v2.1c0 .1-.1.3-.3.3H93.7c-.1 0-.3-.1-.3-.3v-2.1c0-.3.2-.3.3-.3zm0 6.3h42.5c.1 0 .3.1.3.3v2.1c0 .1-.1.3-.3.3H93.7c-.1 0-.3-.1-.3-.3v-2.1c0-.2.2-.3.3-.3zm0 6.3h29.2c.1 0 .3.1.3.3v2.1c0 .1-.1.3-.3.3H93.7c-.1 0-.3-.1-.3-.3v-2.1c0-.2.2-.3.3-.3zM97 83.7h10.1a3.37 3.37 0 0 1 3.4 3.4h0a3.37 3.37 0 0 1-3.4 3.4H97a3.37 3.37 0 0 1-3.4-3.4h0c-.1-1.9 1.4-3.4 3.4-3.4z" fill="#83a2aa"/><path d="M98.8 86.2h6.4c.1 0 .3.1.3.3v1.3c0 .1-.1.3-.3.3h-6.4c-.1 0-.3-.1-.3-.3v-1.3c.1-.2.2-.3.3-.3z" fill="#fff"/><path d="M139.6 48.5l1.5-1.5c.2-.2.2-.4 0-.6l-.2-.2a.37.37 0 0 0-.6 0l-1.5 1.5-1.5-1.5a.37.37 0 0 0-.6 0l-.2.2c-.2.2-.2.4 0 .6l1.5 1.5-1.5 1.5c-.2.2-.2.4 0 .6l.2.2a.37.37 0 0 0 .6 0l1.5-1.5 1.5 1.5a.37.37 0 0 0 .6 0l.2-.2c.2-.2.2-.4 0-.6l-1.5-1.5z" fill="#3e585f"/><g fill="#83a2aa"><path d="M95.8 74.9l.8 1.5 1.6.2-1.2 1.1.3 1.6-1.5-.8-1.5.8.3-1.6-1.2-1.1 1.7-.2zm5.3 0l.8 1.5 1.6.2-1.2 1.1.3 1.6-1.5-.8-1.5.8.3-1.6-1.2-1.1 1.7-.2z"/><use xlink:href="#F"/><use xlink:href="#F" x="5.3"/><use xlink:href="#F" x="10.6"/><path d="M142.6 76.8h-5.1c-.6 0-1-.5-1-1v-5.1c0-.6.5-1 1-1h5.1c.6 0 1 .5 1 1v5.1c.1.6-.4 1-1 1z"/></g><path d="M139.1 75.8a.76.76 0 0 1-.4-.2c-.2-.2-.2-.5 0-.7l1.6-1.6-1.6-1.6c-.2-.2-.2-.5 0-.7s.5-.2.7 0l1.9 1.9c.1.1.2.2.2.4s-.1.3-.2.4l-1.9 1.9c0 .1-.1.2-.3.2z" fill="#fff" enable-background="new"/><path d="M35.4 77.9h5.1c.6 0 1-.5 1-1v-5.1c0-.6-.5-1-1-1h-5.1c-.6 0-1 .5-1 1v5.1a.94.94 0 0 0 1 1z" fill="#83a2aa"/><path d="M38.5 76.7l-1.9-1.9c-.1-.1-.2-.2-.2-.4s.1-.3.2-.4l1.9-1.9c.2-.2.5-.2.7 0s.2.5 0 .7l-1.6 1.6 1.6 1.6c.2.2.2.5 0 .7-.1.1-.2.2-.4.2 0-.1-.2-.1-.3-.2z" fill="#fff" enable-background="new"/><defs ><path id="B" d="M31.8 66.8l.6 1.3 1.5.2-1.1.9.3 1.5-1.3-.7-1.4.7.3-1.5-1.1-.9 1.5-.2z"/><path id="C" d="M79.6 66.8l.7 1.3 1.4.2-1 .9.2 1.5-1.3-.7-1.3.7.2-1.5-1-.9 1.4-.2z"/><path id="D" d="M31.8 128.7l.6 1.3 1.5.2-1.1 1 .3 1.4-1.3-.7-1.4.7.3-1.4-1.1-1 1.5-.2z"/><path id="E" d="M79.6 128.7l.7 1.3 1.4.2-1 1 .2 1.4-1.3-.7-1.3.7.2-1.4-1-1 1.4-.2z"/><path id="F" d="M106.5 74.9l.7 1.5 1.7.2-1.2 1.1.2 1.6-1.4-.8-1.5.8.2-1.6-1.2-1.1 1.7-.2z"/></defs></svg>