<svg xmlns="http://www.w3.org/2000/svg" xmlns:xlink="http://www.w3.org/1999/xlink" viewBox="0 0 180 150" xmlns:v="https://vecta.io/nano"><style><![CDATA[.I{fill:#e6e6e6}.J{fill:#d1d1d1}.K{fill:#83a2aa}.L{enable-background:new}]]></style><g class="I"><use xlink:href="#B"/><use xlink:href="#B" x="4.7"/><use xlink:href="#B" x="9.4"/><use xlink:href="#B" x="14.1"/><use xlink:href="#B" x="18.8"/><path d="M58 58.6H26.3c-2.2 0-3.9-1.8-3.9-3.9V20.2c0-2.2 1.8-3.9 3.9-3.9H58c2.2 0 3.9 1.8 3.9 3.9v34.5c0 2.1-1.7 3.9-3.9 3.9z"/></g><path d="M52.7 65.6H31.6c-1 0-1.9-.8-1.9-1.9h0c0-1 .8-1.9 1.9-1.9h21.1c1 0 1.9.8 1.9 1.9h0a1.97 1.97 0 0 1-1.9 1.9z" class="J"/><g class="I"><use xlink:href="#C"/><use xlink:href="#C" x="4.7"/><path d="M90 67.8l.7 1.3 1.4.2-1 .9.2 1.5L90 71l-1.3.7.2-1.5-1-.9 1.4-.2z"/><use xlink:href="#C" x="14.1"/><use xlink:href="#C" x="18.8"/><path d="M105.8 58.6H74.2c-2.2 0-3.9-1.8-3.9-3.9V20.2c0-2.2 1.8-3.9 3.9-3.9h31.6c2.2 0 3.9 1.8 3.9 3.9v34.5c.1 2.1-1.7 3.9-3.9 3.9z"/></g><path d="M100.6 65.6H79.4c-1 0-1.9-.8-1.9-1.9h0c0-1 .8-1.9 1.9-1.9h21.1c1 0 1.9.8 1.9 1.9h0c0 1-.8 1.9-1.8 1.9z" class="J"/><g class="I"><use xlink:href="#B" x="95.7" y="0.2"/><use xlink:href="#B" x="100.4" y="0.2"/><use xlink:href="#B" x="105.1" y="0.2"/><path d="M142.5 68l.7 1.3 1.5.2-1.1.9.3 1.5-1.4-.7-1.3.7.3-1.5-1.1-.9 1.5-.2zm4.7 0l.7 1.3 1.5.2-1.1.9.3 1.5-1.4-.7-1.3.7.3-1.5-1.1-.9 1.5-.2zm6.5-9.2H122c-2.2 0-3.9-1.8-3.9-3.9V20.4c0-2.2 1.8-3.9 3.9-3.9h31.6c2.2 0 3.9 1.8 3.9 3.9v34.5c.1 2.1-1.7 3.9-3.8 3.9z"/></g><path d="M148.4 65.8h-21.1c-1 0-1.9-.8-1.9-1.9h0c0-1 .8-1.9 1.9-1.9h21.1c1 0 1.9.8 1.9 1.9h0a1.97 1.97 0 0 1-1.9 1.9z" class="J"/><g class="I"><use xlink:href="#D"/><use xlink:href="#D" x="4.7"/><use xlink:href="#D" x="9.4"/><use xlink:href="#D" x="14.1"/><use xlink:href="#D" x="18.8"/><path d="M58 120.5H26.3c-2.2 0-3.9-1.8-3.9-3.9V82.1c0-2.2 1.8-3.9 3.9-3.9H58c2.2 0 3.9 1.8 3.9 3.9v34.5c0 2.1-1.7 3.9-3.9 3.9z"/></g><path d="M52.7 127.5H31.6c-1 0-1.9-.8-1.9-1.9h0c0-1 .8-1.9 1.9-1.9h21.1c1 0 1.9.8 1.9 1.9h0c0 1.1-.9 1.9-1.9 1.9z" class="J"/><g class="I"><use xlink:href="#E"/><use xlink:href="#E" x="4.7"/><use xlink:href="#E" x="9.4"/><use xlink:href="#E" x="14.1"/><use xlink:href="#E" x="18.8"/><path d="M105.8 120.5H74.2c-2.2 0-3.9-1.8-3.9-3.9V82.1c0-2.2 1.8-3.9 3.9-3.9h31.6c2.2 0 3.9 1.8 3.9 3.9v34.5c.1 2.1-1.7 3.9-3.9 3.9z"/></g><path d="M100.6 127.5H79.4c-1 0-1.9-.8-1.9-1.9h0c0-1 .8-1.9 1.9-1.9h21.1c1 0 1.9.8 1.9 1.9h0c0 1.1-.8 1.9-1.8 1.9z" class="J"/><g class="I"><use xlink:href="#D" x="95.7" y="0.2"/><use xlink:href="#D" x="100.4" y="0.2"/><use xlink:href="#D" x="105.1" y="0.2"/><path d="M142.5 129.9l.7 1.3 1.5.2-1.1 1 .3 1.4-1.4-.7-1.3.7.3-1.4-1.1-1 1.5-.2zm4.7 0l.7 1.3 1.5.2-1.1 1 .3 1.4-1.4-.7-1.3.7.3-1.4-1.1-1 1.5-.2z"/></g><path d="M153.7 120.7H122c-2.2 0-3.9-1.8-3.9-3.9V82.3c0-2.2 1.8-3.9 3.9-3.9h31.6c2.2 0 3.9 1.8 3.9 3.9v34.5c.1 2.1-1.7 3.9-3.8 3.9z" fill="#a6b4bf"/><path d="M148.4 127.7h-21.1c-1 0-1.9-.8-1.9-1.9h0c0-1 .8-1.9 1.9-1.9h21.1c1 0 1.9.8 1.9 1.9h0c0 1.1-.9 1.9-1.9 1.9z" class="J"/><use xlink:href="#F" fill="#fff"/><path d="M120.5,76.3h-60V18.8c0-1.7,1.3-3,3-3h54c1.7,0,3,1.3,3,3V76.3z" fill="#a6b4bf"/><path d="M82.7 54.4h15.7L94.1 45l-5.2 7-3.6-2.7c0 .1-2.6 5.1-2.6 5.1zm5.8-5l6-8 6.9 14.8H79.7l4.9-9.8 3.9 3zm-1.7-6.2a3.76 3.76 0 0 1-3.7-3.7 3.76 3.76 0 0 1 3.7-3.7 3.76 3.76 0 0 1 3.7 3.7c0 2-1.6 3.7-3.7 3.7zm0-1.9c1.1 0 1.9-.8 1.9-1.9s-.8-1.9-1.9-1.9-1.9.8-1.9 1.9.9 1.9 1.9 1.9z" fill="#fff"/><path d="M115.9 20.5l1.5-1.5a.37.37 0 0 0 0-.6l-.2-.2c-.2-.2-.4-.2-.6 0l-1.5 1.5-1.5-1.5c-.2-.2-.4-.2-.6 0l-.2.2a.37.37 0 0 0 0 .6l1.5 1.5-1.5 1.5a.37.37 0 0 0 0 .6l.2.2c.2.2.4.2.6 0l1.5-1.5 1.5 1.5c.2.2.4.2.6 0l.2-.2a.37.37 0 0 0 0-.6l-1.5-1.5zM67.1 85h25.6c.3 0 .5.2.5.4v2.2c0 .2-.2.4-.5.4H67.1c-.3 0-.5-.2-.5-.4v-2.2c0-.2.3-.4.5-.4z" fill="#3e585f"/><path d="M66.9 93.1h45.5c.1 0 .3.1.3.3v2.1c0 .1-.1.3-.3.3H66.9c-.1 0-.3-.1-.3-.3v-2.1c0-.2.1-.3.3-.3zm0 6.3h45.5c.1 0 .3.1.3.3v2.1c0 .1-.1.3-.3.3H66.9c-.1 0-.3-.1-.3-.3v-2.1c0-.1.1-.3.3-.3zm0 6.4H98c.1 0 .3.1.3.3v2.1c0 .1-.1.3-.3.3H66.9c-.1 0-.3-.1-.3-.3V106c0-.2.1-.2.3-.2zm3.1 15.1h10.1a3.37 3.37 0 0 1 3.4 3.4h0a3.37 3.37 0 0 1-3.4 3.4H70a3.37 3.37 0 0 1-3.4-3.4h0c-.1-1.9 1.5-3.4 3.4-3.4z" class="K"/><path d="M71.9 123.4h6.4c.1 0 .3.1.3.3v1.3c0 .1-.1.3-.3.3h-6.4c-.1 0-.3-.1-.3-.3v-1.3c.1-.2.1-.3.3-.3z" fill="#fff"/><g class="K"><use xlink:href="#G"/><use xlink:href="#G" x="5.3"/><use xlink:href="#G" x="10.6"/><use xlink:href="#G" x="15.9"/><use xlink:href="#G" x="21.2"/></g><use xlink:href="#F" fill="none" stroke="#a6b4bf" stroke-miterlimit="10"/><path d="M117.6 84.1h-5.1c-.6 0-1-.5-1-1V78c0-.6.5-1 1-1h5.1c.6 0 1 .5 1 1v5.1c0 .6-.5 1-1 1z" class="K"/><path d="M114.1 83a.76.76 0 0 1-.4-.2c-.2-.2-.2-.5 0-.7l1.6-1.6-1.6-1.6c-.2-.2-.2-.5 0-.7s.5-.2.7 0l1.9 1.9c.1.1.2.2.2.4s-.1.3-.2.4l-1.9 1.9c-.1.2-.2.2-.3.2z" fill="#fff" class="L"/><path d="M63.4 84.1h5.1c.6 0 1-.5 1-1V78c0-.6-.5-1-1-1h-5.1c-.6 0-1 .5-1 1v5.1a.94.94 0 0 0 1 1z" class="K"/><path d="M66.5 82.9L64.6 81c-.1-.1-.2-.2-.2-.4s.1-.3.2-.4l1.9-1.9c.2-.2.5-.2.7 0s.2.5 0 .7l-1.6 1.6 1.6 1.6c.2.2.2.5 0 .7 0 .1-.2.1-.3.1s-.3 0-.4-.1z" fill="#fff" class="L"/><defs ><path id="B" d="M32.8 67.8l.6 1.3 1.5.2-1.1.9.3 1.5-1.3-.7-1.4.7.3-1.5-1.1-.9 1.5-.2z"/><path id="C" d="M80.6 67.8l.7 1.3 1.4.2-1 .9.2 1.5-1.3-.7-1.3.7.2-1.5-1-.9 1.4-.2z"/><path id="D" d="M32.8 129.7l.6 1.3 1.5.2-1.1 1 .3 1.4-1.3-.7-1.4.7.3-1.4-1.1-1 1.5-.2z"/><path id="E" d="M80.6 129.7l.7 1.3 1.4.2-1 1 .2 1.4-1.3-.7-1.3.7.2-1.4-1-1 1.4-.2z"/><path id="F" d="M117.5 135.8h-54c-1.7 0-3-1.3-3-3v-114c0-1.7 1.3-3 3-3h54c1.7 0 3 1.3 3 3v114a3.01 3.01 0 0 1-3 3z"/><path id="G" d="M69 112.2l.8 1.4 1.6.2-1.2 1.1.3 1.6-1.5-.7-1.5.7.3-1.6-1.2-1.1 1.7-.2z"/></defs></svg>